<svg xmlns="http://www.w3.org/2000/svg" xml:space="preserve"
     style="fill-rule:evenodd;clip-rule:evenodd;stroke-linejoin:round;stroke-miterlimit:2" viewBox="0 0 675 675"><path d="M0 0h654v645H0z" style="fill:none" transform="scale(1.03182 1.04603)"/>
    <path d="M315.29 0h23.94l-1.36.4c-7.97.42-15.97.28-23.93-.03l1.35-.37ZM253.24 221.62c2.56-2.62 5.46-4.87 8.48-6.94 2.58 5.72 5.39 11.39 9.16 16.43 6.89 9.09 15.82 16.43 25.46 22.43 11.34 7.6 24.23 12.33 36.86 17.25 16.34 5.63 32.85 10.78 49.45 15.6 13.38 2.94 26.58 6.89 40.26 8.24 17 2.34 35.07 4.06 51.43-2.32 4.8-1.71 8.9-4.87 13.69-6.6-1.57 2.86-4.34 4.72-6.94 6.55-8.75 6.05-19.58 8.68-30.13 8.37-12.77.25-25.49-1.05-38.09-2.95-8.35-1.14-16.41-3.74-24.76-4.89-6.98-1.71-14.17-2.61-20.99-4.93-7.02-2.28-14.39-3.19-21.45-5.33-17.39-5.04-34.91-10.12-51.21-18.12-9.93-5.19-19.81-11.12-27.08-19.81-6.34-6.53-10.84-14.55-14.14-22.98Z"
          style="fill:#0162ac;fill-rule:nonzero" transform="matrix(1 0 0 1 9.408 15.165)"/>
    <path d="M252.19 377.34c3.39 3.51 5.63 7.95 8.81 11.66 7.69 9.3 15.68 18.35 23.24 27.76.45.63.8 1.32 1.05 2.06 1.24 3.77 3.99 6.74 6.06 10.07 10.43 14.89 17.45 31.95 22.31 49.4 5.64 18.94 5.7 39.25 1.94 58.56-1.99 8.76-5.4 17.19-9.69 25.08-3.7 6.14-8.04 11.89-12.63 17.39-6.13 7.24-13.73 13.01-21.41 18.49-2.33 1.58-4.75 3.5-7.72 3.43-28.11-9.92-55.38-22.82-79.86-39.91 15.57-.53 30.91-5.18 44.64-12.44 16.25-9.28 29.86-23.86 36.26-41.61 8.09-20.89 7.59-44.46.2-65.46-6.3-18.23-16.35-34.92-27.39-50.64-11.43-14.88-22.29-30.25-31.52-46.61-8.12-15.09-14.59-31.15-17.93-48-1.29-5.87-2.42-11.81-2.35-17.85-.35-6.8-.18-13.6.23-20.39 1.35-13.83 5.28-27.32 11.02-39.95 7.86-16.69 18.48-32.31 32.64-44.29 11.85-10.16 25.48-18.56 40.5-23.08 7.36-2.41 14.84-4.63 22.55-5.6 20.64-3.15 41.5.4 61.67 4.83 9.28 1.85 18.58 3.59 27.72 6.07 16.07 3.32 31.55 11.29 42.13 24.03 5.33 6.18 11.31 11.93 18.4 16.05 11.99 6.91 25.16 11.33 37.86 16.7 12.01 5.18 22.33 14.71 27.36 26.89 2.75 5.75 2.43 12.26 2.31 18.46-.31 3.06-1.75 5.85-3.39 8.4-4.07-3.01-9.2-4.78-14.28-3.99-7.4.49-13.48 5.07-19.95 8.18-9.4 5.1-20.29 6.84-30.89 6.57-14.11.27-27.88-3.23-41.54-6.3-7.34-1.65-14.51-3.88-21.69-6.08-10.77-3.65-21.63-7.53-31.14-13.89-4.74-3.25-9-7.15-12.98-11.29-7.42 2.56-15.11 4.21-22.92 5.01 7.12 8.75 16.95 14.9 26.72 20.34 10.55 5.37 21.21 10.63 32.51 14.24 8.58 2.72 17.1 5.7 25.93 7.51 18.68 4.4 37.89 7.38 57.13 6.35 6.44-.6 12.91-1.81 18.84-4.48 4.22-1.84 8.03-4.46 12.08-6.64 1.37.96 2.73 1.92 4.1 2.89l-1.09.45c-4.79 1.73-8.89 4.89-13.69 6.6-16.36 6.38-34.43 4.66-51.43 2.32-13.68-1.35-26.88-5.3-40.26-8.24-16.6-4.82-33.11-9.97-49.45-15.6-12.63-4.92-25.52-9.65-36.86-17.25-9.64-6-18.57-13.34-25.46-22.43-3.77-5.04-6.58-10.71-9.16-16.43-3.02 2.07-5.92 4.32-8.48 6.94-18.4 17.29-28.33 42.36-29.06 67.39-.18 8.4-.2 16.88 1.5 25.15 3.26 22.92 13.72 44.14 26.51 63.18ZM452 236.89c-4.34 2.94-6.37 8.08-5.87 13.24 8.65-3.43 18.51-3.81 27.14-.11 3.5-11.31-12.74-20.62-21.27-13.13Zm-111.52-53.54c-7.52 4.68-13.2 11.91-16.31 20.19 4.38-.57 8.77-1.1 13.2-1.17-1.46 6.28-1.24 13.36 2.38 18.91 4.51 7.46 12.48 12.97 21.23 13.86 8.47.52 17.12-2.13 23.6-7.68 9.39 1.65 18.93.59 28.39 1.23-6.97-3.55-13.47-8.13-19.12-13.53.69-13.16-5.96-26.83-17.63-33.31-11-6.18-25.18-5.12-35.74 1.5Z"
          style="fill:url(#a)" transform="matrix(1 0 0 1 9.408 15.165)"/>
    <path d="M246 10.18c18.4-4.5 37.16-7.64 56.05-9.17 3.97-.1 7.96.08 11.89-.64 7.96.31 15.96.45 23.93.03 6.38.95 12.86.11 19.23 1.12 22.16 1.66 44.15 5.81 65.44 12.18 17.83 5.58 35.52 11.9 52.12 20.56 32.41 15.73 62.05 37.15 87.13 63 4.25 4.45 8.09 9.26 12.46 13.61 9.58 11.71 19.18 23.45 27.46 36.13 10.08 15.31 18.7 31.54 25.94 48.36 8.94 19.95 15.07 41.03 19.65 62.37 2.59 10.72 4.23 21.66 5.15 32.64.9 4.25-.03 8.75 1.55 12.86v32.84c-.94 3.23-1.02 6.59-1.02 9.93-1.76 22.15-5.72 44.12-11.69 65.53-2.77 8.23-4.85 16.7-7.99 24.81-8.02 20.85-17.82 41.08-30.23 59.68-32.8 49.03-78.05 90.05-131.33 115.71-19.95 10.02-41.2 17.25-62.74 22.96-16.83 3.76-33.75 7.49-50.97 8.83-4.75 1.07-9.81-.38-14.39 1.48h-28.73c-1.78-1.46-4.22-1.74-6.27-.66-36.38-1.5-72.34-10.24-105.96-24.09-29-11.73-56.04-28.06-80.5-47.51-9.22-7.35-17.72-15.53-26.41-23.49-15.41-16.09-29.86-33.2-42.42-51.64-7.14-11.31-14.24-22.67-20.27-34.61-3.22-7.38-6.96-14.52-9.89-22.03-8.79-22.5-14.53-46.08-18.86-69.81-1.9-12.7-3.24-25.49-3.71-38.31-.07-6.66-.18-32.79 1.01-39.12 1.24-17.66 5.1-35.01 9.07-52.22 5.29-18.73 11.76-37.17 19.99-54.82C45.66 156 65.1 127.45 88.72 102.76c7.3-7.02 14.02-14.68 21.91-21.06 16.47-15.08 35.2-27.4 54.33-38.82 25.41-14.42 52.85-25.1 81.04-32.7m23.98 38.84c-16.64 3.85-33.27 8.14-49 14.89-11.91 5.11-23.76 10.42-34.99 16.91-27.72 16.65-53.44 37.05-74.2 61.97-31.73 37.29-54.96 82.5-63.16 130.99-2.6 15.02-4.14 30.25-4.15 45.49-.03 36.5 5.68 73.39 20.02 107.12 6.75 16.88 15.55 33.02 26.77 47.36 11.63 14.08 26.76 25.23 43.57 32.34 10.64 4.27 21.84 7.06 33.12 9.02 10.3 1.44 21.03 1.59 31.03-1.57 9.69-2.91 18.11-9.7 23-18.55 6.1-10.46 6.8-23.16 5.21-34.91-3.18-20.15-14.68-37.54-26.5-53.66-8.54-11.3-16.41-23.08-24.22-34.89-17.19-27.39-28.47-59-29.52-91.5-.95-21.28 1.34-42.86 8.15-63.11 5.58-16.34 13.88-31.76 24.34-45.5 12.53-17.55 28.86-32.19 46.94-43.84 16.05-10.14 34.07-16.72 52.45-21.2 13.48-3.05 27.31-4.56 41.13-4.19 20.52.18 40.65 4.67 60.58 9.08 19.86 4.5 40.4 9.68 56.82 22.34 8.29 5.91 15.42 13.27 21.86 21.12 3.86 4.78 8.23 9.29 13.52 12.5 8.68 5.26 18.69 7.69 27.57 12.56 11.63 6.06 22.11 14.85 28.79 26.24 6.35 10.17 10.34 21.98 10.21 34.05-.03 18.66-7.75 37.38-21.73 49.92 3.17 5.18 6.29 10.42 8.85 15.94 7.55 16.39 9.47 34.61 10.44 52.42-8.18-10.77-14.35-22.86-21.45-34.33-5.05 13.49-12.63 26.13-23.12 36.11 2.08-8.99 4.39-17.95 5.5-27.12.89-8.58 1.49-17.19 1.36-25.82-14.35 13.72-34.7 19.35-54.19 18.97-32.35-.93-63.9-8.92-95.48-15.23-1.43 7.26-1.23 14.84.97 21.94 3.83 14.78 14.32 26.37 23.74 37.91 9.06 10.3 18.46 20.33 26.81 31.22 9.81 13.23 19.31 26.9 25.79 42.11 6.95 14.53 10.97 30.23 14.33 45.92 2.92 17.49 2.79 35.45.22 52.98-2.25 14.09-5.95 28.09-12.81 40.69 15.81-6.74 31.09-14.67 45.99-23.24 14.29-8.2 27.23-18.52 39.85-29.05 17.44-14.94 32.34-32.56 45.89-51.03 29.93-42.02 46.85-92.93 49.2-144.39.34-8.43 1.14-16.88.2-25.3-.2-20.19-3.97-40.17-8.82-59.71-3.16-11.53-7.33-22.77-11.52-33.96-10.75-25.69-25.68-49.54-43.36-71.01-28.94-34.26-65.34-62.65-106.74-80.21-31.14-13.17-64.6-20.54-98.26-23.11-23.79-.6-47.8.77-71 6.32m8.07 86.52c-20.88 5.74-40.7 15.98-56.56 30.85-24.08 21.27-40.04 51.26-45.16 82.9l-.02-.48c-1.76 12-1.29 24.17-.75 36.24 1.71 14.63 5.06 29.13 10.39 42.88 4.07 9.41 8.32 18.78 13.46 27.67 12.54 20.56 27.95 39.24 40.23 59.97 6.12 10.52 10.51 21.92 14.16 33.49 1.57 7.87 3.37 15.84 2.98 23.97.62 30.7-17.33 61.42-45.41 74.47-10.95 5.58-23.26 7.66-35.42 8.36 2.59 2.09 5.61 3.55 8.34 5.47 24.48 17.09 51.75 29.99 79.86 39.91 9.87 3.01 19.9 5.47 29.87 8.17 1.55.71 2.76-.72 3.85-1.56 13.26-11.7 23.56-26.88 28.88-43.79 3.9-12.97 6.53-26.57 5.15-40.16-1.02-18.01-6.12-35.56-13.42-51.99-7.93-19.45-19.96-36.9-33.19-53.09-.25-.74-.6-1.43-1.05-2.06-7.56-9.41-15.55-18.46-23.24-27.76-3.18-3.71-5.42-8.15-8.81-11.66-12.79-19.04-23.25-40.26-26.51-63.18-1.7-8.27-1.68-16.75-1.5-25.15.73-25.03 10.66-50.1 29.06-67.39 3.3 8.43 7.8 16.45 14.14 22.98 7.27 8.69 17.15 14.62 27.08 19.81 16.3 8 33.82 13.08 51.21 18.12 7.06 2.14 14.43 3.05 21.45 5.33 6.82 2.32 14.01 3.22 20.99 4.93 8.35 1.15 16.41 3.75 24.76 4.89 12.6 1.9 25.32 3.2 38.09 2.95 10.55.31 21.38-2.32 30.13-8.37 2.6-1.83 5.37-3.69 6.94-6.55l1.09-.45c-1.37-.97-2.73-1.93-4.1-2.89-4.05 2.18-7.86 4.8-12.08 6.64-5.93 2.67-12.4 3.88-18.84 4.48-19.24 1.03-38.45-1.95-57.13-6.35-8.83-1.81-17.35-4.79-25.93-7.51-11.3-3.61-21.96-8.87-32.51-14.24-9.77-5.44-19.6-11.59-26.72-20.34 7.81-.8 15.5-2.45 22.92-5.01 3.98 4.14 8.24 8.04 12.98 11.29 9.51 6.36 20.37 10.24 31.14 13.89 7.18 2.2 14.35 4.43 21.69 6.08 13.66 3.07 27.43 6.57 41.54 6.3 10.6.27 21.49-1.47 30.89-6.57 6.47-3.11 12.55-7.69 19.95-8.18 5.08-.79 10.21.98 14.28 3.99 1.64-2.55 3.08-5.34 3.39-8.4 1.55-6.35 3.32-12.85 2.45-19.45-.66-9.57-4.77-18.81-11.1-25.97-8.32-8.96-20.07-13.27-31.03-18-8.2-3.14-15.85-7.71-22.46-13.49-6.27-5.48-10.98-12.41-16.56-18.53-10.87-11.36-25.92-17.46-40.92-21.14-12.96-2.94-25.96-5.72-38.97-8.43-10.57-1.99-21.2-4.14-32-4.11-14.23-.33-28.29 2.54-41.95 6.22m-38.33 159.72c8.8 10.68 21.64 17.33 34.84 20.82 3.67 1.19 7.57 1.49 11.4 1.82 11 .8 22.96-.15 32.11-6.92 1.95-3.06 2.63-6.71 3.63-10.15-15.76-4.02-31.29-9.24-45.91-16.42 0 0-21.42-15.73-29.48-26.15-5.55 11.45-6.8 24.43-6.59 37m2.11 21.37c2.23 9.09 4.61 18.62 10.24 26.27 10.07 9.46 23.51 14.81 37.15 16.35 13.04 1.35 27.75.49 38.05-8.62-3.41-7.85-6.32-16.14-6.57-24.78-14.04 7.86-30.93 7.79-46.43 5.48-11.53-3.02-22.77-7.63-32.44-14.7m84.58 51.94c-9.12 4.04-19.07 6.05-29.02 6.26-11.38.09-22.58-2.77-33.01-7.19 5.19 7.36 10.14 14.99 16.73 21.21 12.61 12.8 29.29 22.37 47.5 23.45 13 1.4 27.73-1.37 37.09-11.14-3.82-3.46-7.52-7.08-10.71-11.13-7.15-8.74-14.94-17.06-20.66-26.86-2.48 2.02-4.93 4.16-7.92 5.4m13.87 58.49c-11.24 1.27-22.7-.28-33.33-4.07 9.27 11.17 17.2 23.44 23.36 36.59 9.96 5.89 19.99 12.39 31.71 14.04 8.62 1.1 17.63.38 25.8-2.67 6.55-2.42 11.63-7.65 14.65-13.87-5.08-11.55-11.05-22.75-18.52-32.94-3.17-3.88-6.13-7.92-9.01-12.01-8.84 9.47-21.93 14.2-34.66 14.93m58.58 53.8c-7.85 5.27-17.32 7.6-26.65 8.18-11.72.45-23.61-1.9-33.77-7.91 4.89 13.42 8.56 27.53 8.44 41.91.1 1.84-.22 3.78.44 5.55 6.08 5.03 13.18 8.74 20.45 11.74 9.79 2.85 20.46 3.62 30.28.52 6.21-1.97 11.55-6.21 15.15-11.6 1.4-2.35 1.51-5.17 1.9-7.81.62-10.37-.11-20.81-2.14-30.98-1.57-6.16-3.12-12.32-4.78-18.45-3.06 2.99-5.89 6.27-9.32 8.85m-53.21 65.13c-.51 9.9-3.12 19.61-6.88 28.75-5.16 13.22-12.72 25.49-22.48 35.82-.72.34-1.44.7-2.15 1.07 18.59 1.37 37.42.82 55.71-2.99 3.5-1 7.91-.37 10.51-3.36 1.97-2.01 3.97-3.99 5.95-5.98 13.7-14 21.72-32.58 26.39-51.36-3.39 2.36-6.63 5.04-10.55 6.48-11.96 4.59-25.47 4.1-37.53.15-6.58-2.26-12.91-5.2-18.97-8.58Z"
          style="fill:#011d4a;fill-rule:nonzero" transform="matrix(1 0 0 1 9.408 15.165)"/>
    <path d="M340.48 183.35c10.56-6.62 24.74-7.68 35.74-1.5 11.67 6.48 18.32 20.15 17.63 33.31 5.65 5.4 12.15 9.98 19.12 13.53-9.46-.64-19 .42-28.39-1.23-6.48 5.55-15.13 8.2-23.6 7.68-8.75-.89-16.72-6.4-21.23-13.86-3.62-5.55-3.84-12.63-2.38-18.91-4.43.07-8.82.6-13.2 1.17 3.11-8.28 8.79-15.51 16.31-20.19m15.59 10.56c-6.87 2.19-10.01 10.39-8.46 17.03 1.59 8.94 12.38 15.02 20.75 11.27 1.58-.9-.33-1.94-1.14-2.37-4.98-2.91-7.64-9.48-5.31-14.91 1-2.76 3.87-4.01 6.47-4.82-.56-5.6-7.57-8.04-12.31-6.2ZM452 236.89c8.53-7.49 24.77 1.82 21.27 13.13-8.63-3.7-18.49-3.32-27.14.11-.5-5.16 1.53-10.3 5.87-13.24Z"
          style="fill:#011d4a;fill-rule:nonzero" transform="matrix(1 0 0 1 9.408 15.165)"/>
    <path d="M269.98 49.02c23.2-5.55 47.21-6.92 71-6.32 33.66 2.57 67.12 9.94 98.26 23.11 41.4 17.56 77.8 45.95 106.74 80.21 17.68 21.47 32.61 45.32 43.36 71.01 4.19 11.19 8.36 22.43 11.52 33.96 4.85 19.54 8.62 39.52 8.82 59.71-.48 5.12-.47 10.26-.61 15.39-8.9-7.51-17.97-14.83-26.94-22.24-.36 12.37.66 24.82-1.07 37.12-2.79 19.67-5.9 39.46-12.76 58.19-3.19 9.78-7.56 19.1-11.83 28.44-5.12 9.16-9.52 18.75-15.59 27.34-11.82 18.61-26.58 35.19-42.74 50.12-6.54 5.13-12.42 11.07-19.34 15.71-11.88 8.36-24.49 15.66-37.44 22.25 2.57-17.53 2.7-35.49-.22-52.98-3.36-15.69-7.38-31.39-14.33-45.92-6.48-15.21-15.98-28.88-25.79-42.11-8.35-10.89-17.75-20.92-26.81-31.22-9.42-11.54-19.91-23.13-23.74-37.91-2.2-7.1-2.4-14.68-.97-21.94 31.58 6.31 63.13 14.3 95.48 15.23 19.49.38 39.84-5.25 54.19-18.97.13 8.63-.47 17.24-1.36 25.82-1.11 9.17-3.42 18.13-5.5 27.12 10.49-9.98 18.07-22.62 23.12-36.11 7.1 11.47 13.27 23.56 21.45 34.33-.97-17.81-2.89-36.03-10.44-52.42-2.56-5.52-5.68-10.76-8.85-15.94 13.98-12.54 21.7-31.26 21.73-49.92.13-12.07-3.86-23.88-10.21-34.05-6.68-11.39-17.16-20.18-28.79-26.24-8.88-4.87-18.89-7.3-27.57-12.56-5.29-3.21-9.66-7.72-13.52-12.5-6.44-7.85-13.57-15.21-21.86-21.12-16.42-12.66-36.96-17.84-56.82-22.34-19.93-4.41-40.06-8.9-60.58-9.08-13.82-.37-27.65 1.14-41.13 4.19-18.38 4.48-36.4 11.06-52.45 21.2-18.08 11.65-34.41 26.29-46.94 43.84-10.46 13.74-18.76 29.16-24.34 45.5-6.81 20.25-9.1 41.83-8.15 63.11 1.05 32.5 12.33 64.11 29.52 91.5 7.81 11.81 15.68 23.59 24.22 34.89 11.82 16.12 23.32 33.51 26.5 53.66 1.59 11.75.89 24.45-5.21 34.91-4.89 8.85-13.31 15.64-23 18.55-10 3.16-20.73 3.01-31.03 1.57 2.02-.02 4.05-.14 6.07-.26-8.25-5.57-15.88-12-23.28-18.64-6.43-6.52-13.44-12.51-19.17-19.69-5.13-5.95-10.3-11.93-14.41-18.65-7.41-11.37-15.58-22.41-20.95-34.95-5.97-12.65-11.44-25.65-14.79-39.27-4.75-18.53-8.23-37.48-9.07-56.63-.23-9.71-.46-19.42-.24-29.14-9.4 6.88-18.49 14.18-27.64 21.39.01-15.24 1.55-30.47 4.15-45.49 8.2-48.49 31.43-93.7 63.16-130.99 20.76-24.92 46.48-45.32 74.2-61.97 11.23-6.49 23.08-11.8 34.99-16.91 15.73-6.75 32.36-11.04 49-14.89Z"
          style="fill:#d9f9ff;fill-rule:nonzero" transform="matrix(1 0 0 1 9.408 15.165)"/>
    <path d="M278.05 135.54c13.66-3.68 27.72-6.55 41.95-6.22 10.8-.03 21.43 2.12 32 4.11 13.01 2.71 26.01 5.49 38.97 8.43 15 3.68 30.05 9.78 40.92 21.14 5.58 6.12 10.29 13.05 16.56 18.53 6.61 5.78 14.26 10.35 22.46 13.49 10.96 4.73 22.71 9.04 31.03 18 6.33 7.16 10.44 16.4 11.1 25.97.87 6.6-.9 13.1-2.45 19.45.12-6.2.44-12.71-2.31-18.46-5.03-12.18-15.35-21.71-27.36-26.89-12.7-5.37-25.87-9.79-37.86-16.7-7.09-4.12-13.07-9.87-18.4-16.05-10.58-12.74-26.06-20.71-42.13-24.03-9.14-2.48-18.44-4.22-27.72-6.07-20.17-4.43-41.03-7.98-61.67-4.83-7.71.97-15.19 3.19-22.55 5.6-15.02 4.52-28.65 12.92-40.5 23.08-14.16 11.98-24.78 27.6-32.64 44.29-5.74 12.63-9.67 26.12-11.02 39.95-.431 2.353-1.936 7.656-2.87 8.78-1.123 1.353-2.89-.94-3.24-2.49-1.53-4.34-3.97-14.8-3.99-15.33 5.12-31.64 21.08-61.63 45.16-82.9 15.86-14.87 35.68-25.11 56.56-30.85Z"
          style="fill:#fff;fill-rule:nonzero" transform="matrix(1 0 0 1 9.408 15.165)"/>
    <path d="M356.07 193.91c4.74-1.84 11.75.6 12.31 6.2-2.6.81-5.47 2.06-6.47 4.82-2.33 5.43.33 12 5.31 14.91.81.43 2.72 1.47 1.14 2.37-8.37 3.75-19.16-2.33-20.75-11.27-1.55-6.64 1.59-14.84 8.46-17.03ZM274.56 316.08c-.74-10.58-.01-21.17 1.23-31.67 14.62 7.18 30.15 12.4 45.91 16.42-1 3.44-1.68 7.09-3.63 10.15-9.15 6.77-21.11 7.72-32.11 6.92-3.83-.33-7.73-.63-11.4-1.82ZM277.481 331.772c15.606 1.357 28.641 1.843 43.219-5.922.25 8.64 3.16 16.93 6.57 24.78-10.3 9.11-25.01 9.97-38.05 8.62-2.33-5.78-5.18-11.33-7.36-17.17-1.26-3.01-3.377-7.902-4.379-10.308ZM326.41 368.57c2.99-1.24 5.44-3.38 7.92-5.4 5.72 9.8 13.51 18.12 20.66 26.86 3.19 4.05 6.89 7.67 10.71 11.13-9.36 9.77-24.09 12.54-37.09 11.14-5.9-8.58-13.12-16.14-19.49-24.36-3.52-4.72-7.94-8.63-11.73-13.11 9.95-.21 19.9-2.22 29.02-6.26ZM340.28 427.06c12.73-.73 25.82-5.46 34.66-14.93 2.88 4.09 5.84 8.13 9.01 12.01 7.47 10.19 13.44 21.39 18.52 32.94-3.02 6.22-8.1 11.45-14.65 13.87-8.17 3.05-17.18 3.77-25.8 2.67-4.6-13.47-10.37-26.6-18.11-38.58-1.47-2.52-3.74-4.87-3.63-7.98ZM398.86 480.86c3.43-2.58 6.26-5.86 9.32-8.85 1.66 6.13 3.21 12.29 4.78 18.45 2.03 10.17 2.76 20.61 2.14 30.98-.39 2.64-.5 5.46-1.9 7.81-3.6 5.39-8.94 9.63-15.15 11.6-9.82 3.1-20.49 2.33-30.28-.52 2.85-16.74 2.21-33.88-.75-50.55 1.72-.26 3.45-.52 5.19-.74 9.33-.58 18.8-2.91 26.65-8.18ZM402.15 554.42c3.92-1.44 7.16-4.12 10.55-6.48-4.67 18.78-12.69 37.36-26.39 51.36-1.98 1.99-3.98 3.97-5.95 5.98-2.6 2.99-7.01 2.36-10.51 3.36-18.29 3.81-37.12 4.36-55.71 2.99a61.4 61.4 0 0 1 2.15-1.07c4.76 1.33 9.83 1.41 14.73 1.04 3.87-2.95 6.9-6.85 9.99-10.58 10.68-13.75 20.13-29.19 23.61-46.45 12.06 3.95 25.57 4.44 37.53-.15Z"
          style="fill:#fff;fill-rule:nonzero" transform="matrix(1 0 0 1 9.408 15.165)"/>
    <path d="M291.35 428.89c-2.07-3.33-4.82-6.3-6.06-10.07 13.23 16.19 25.26 33.64 33.19 53.09 7.3 16.43 12.4 33.98 13.42 51.99 1.38 13.59-1.25 27.19-5.15 40.16-5.32 16.91-15.62 32.09-28.88 43.79-1.09.84-2.3 2.27-3.85 1.56-9.97-2.7-20-5.16-29.87-8.17 2.97.07 5.39-1.85 7.72-3.43 7.68-5.48 15.28-11.25 21.41-18.49 4.59-5.5 8.93-11.25 12.63-17.39 4.29-7.89 7.7-16.32 9.69-25.08 3.76-19.31 3.7-39.62-1.94-58.56-4.86-17.45-11.88-34.51-22.31-49.4Z"
          style="fill:#0cb3fc;fill-rule:nonzero" transform="matrix(1 0 0 1 9.408 15.165)"/>
    <path d="M253.8 449.06c-3.65-11.57-8.04-22.97-14.16-33.49-12.28-20.73-27.69-39.41-40.23-59.97-5.14-8.89-9.39-18.26-13.46-27.67-5.33-13.75-8.68-28.25-10.39-42.88-.54-12.07-1.01-24.24.75-36.24l.02.48s2.46 10.99 3.99 15.33c.35 1.55 2.586 3.685 3.24 2.49 1.152-2.104 2.756-7.764 2.87-8.78-.41 6.79-.58 13.59-.23 20.39-.07 6.04 1.06 11.98 2.35 17.85 3.34 16.85 9.81 32.91 17.93 48 9.23 16.36 20.09 31.73 31.52 46.61 11.04 15.72 21.09 32.41 27.39 50.64 7.39 21 7.89 44.57-.2 65.46-6.4 17.75-20.01 32.33-36.26 41.61-13.73 7.26-29.07 11.91-44.64 12.44-2.73-1.92-5.75-3.38-8.34-5.47 12.16-.7 24.47-2.78 35.42-8.36 28.08-13.05 46.03-43.77 45.41-74.47.39-8.13-1.41-16.1-2.98-23.97Z"
          style="fill:url(#b)" transform="matrix(1 0 0 1 9.408 15.165)"/>
    <path d="M44.48 319.27c9.15-7.21 18.24-14.51 27.64-21.39-.22 9.72.01 19.43.24 29.14.84 19.15 4.32 38.1 9.07 56.63 3.35 13.62 8.82 26.62 14.79 39.27 5.37 12.54 13.54 23.58 20.95 34.95 4.11 6.72 9.28 12.7 14.41 18.65 5.73 7.18 12.74 13.17 19.17 19.69 7.4 6.64 15.03 13.07 23.28 18.64-2.02.12-4.05.24-6.07.26-11.28-1.96-22.48-4.75-33.12-9.02-16.81-7.11-31.94-18.26-43.57-32.34-11.22-14.34-20.02-30.48-26.77-47.36-14.34-33.73-20.05-70.62-20.02-107.12ZM582.13 303.85c8.97 7.41 18.04 14.73 26.94 22.24.14-5.13.13-10.27.61-15.39.94 8.42.14 16.87-.2 25.3-2.35 51.46-19.27 102.37-49.2 144.39-13.55 18.47-28.45 36.09-45.89 51.03-12.62 10.53-25.56 20.85-39.85 29.05-14.9 8.57-30.18 16.5-45.99 23.24 6.86-12.6 10.56-26.6 12.81-40.69 12.95-6.59 25.56-13.89 37.44-22.25 6.92-4.64 12.8-10.58 19.34-15.71 16.16-14.93 30.92-31.51 42.74-50.12 6.07-8.59 10.47-18.18 15.59-27.34 4.27-9.34 8.64-18.66 11.83-28.44 6.86-18.73 9.97-38.52 12.76-58.19 1.73-12.3.71-24.75 1.07-37.12Z"
          style="fill:#95dfff;fill-rule:nonzero" transform="matrix(1 0 0 1 9.408 15.165)"/>
    <path d="M239.72 295.26c-.21-12.57 1.04-25.55 6.59-37 8.06 10.42 29.48 26.15 29.48 26.15-1.24 10.5-1.97 21.09-1.23 31.67-13.2-3.49-26.04-10.14-34.84-20.82ZM241.83 316.63c9.67 7.07 35.651 15.142 35.651 15.142s3.119 7.298 4.379 10.308c2.18 5.84 5.03 11.39 7.36 17.17-13.64-1.54-27.08-6.89-37.15-16.35-5.63-7.65-8.01-17.18-10.24-26.27ZM264.38 367.64c10.43 4.42 21.63 7.28 33.01 7.19 3.79 4.48 8.21 8.39 11.73 13.11 6.37 8.22 13.59 15.78 19.49 24.36-18.21-1.08-34.89-10.65-47.5-23.45-6.59-6.22-11.54-13.85-16.73-21.21ZM306.95 422.99c10.63 3.79 22.09 5.34 33.33 4.07-.11 3.11 2.16 5.46 3.63 7.98 7.74 11.98 13.51 25.11 18.11 38.58-11.72-1.65-21.75-8.15-31.71-14.04-6.16-13.15-14.09-25.42-23.36-36.59ZM338.44 481.13c10.16 6.01 22.05 8.36 33.77 7.91-1.74.22-3.47.48-5.19.74 2.96 16.67 3.6 33.81.75 50.55-7.27-3-14.37-6.71-20.45-11.74-.66-1.77-.34-3.71-.44-5.55.12-14.38-3.55-28.49-8.44-41.91ZM345.65 545.99c6.06 3.38 12.39 6.32 18.97 8.58-3.48 17.26-12.93 32.7-23.61 46.45-3.09 3.73-6.521 8.341-10.391 11.291-4.9.37-11.719.649-16.479-.681 9.76-10.33 19.47-23.67 24.63-36.89 3.76-9.14 6.37-18.85 6.88-28.75Z"
          style="fill:#8dd0e4;fill-rule:nonzero" transform="matrix(1 0 0 1 9.408 15.165)"/>
    <path d="M356.634 25.758c180.241 0 326.574 146.333 326.574 326.574S536.875 678.906 356.634 678.906c-180.24 0-326.573-146.333-326.573-326.574S176.394 25.758 356.634 25.758Zm0 54.752c150.023 0 271.823 121.799 271.823 271.822s-121.8 271.823-271.823 271.823c-150.022 0-271.822-121.8-271.822-271.823 0-150.023 121.8-271.822 271.822-271.822Z"
          style="fill:#011d4a" transform="matrix(1.02465 0 0 1.02466 -28.594 -23.17)"/>
    <defs><linearGradient id="a" x1="0" x2="1" y1="0" y2="0" gradientTransform="scale(-467.2614) rotate(-79.295 -.523 .29)" gradientUnits="userSpaceOnUse"><stop offset="0" style="stop-color:#0ab3fb;stop-opacity:1"/><stop
            offset=".41" style="stop-color:#0897d8;stop-opacity:1"/><stop offset=".74"
                                                                          style="stop-color:#003257;stop-opacity:1"/><stop
            offset="1" style="stop-color:#003257;stop-opacity:1"/></linearGradient>
        <linearGradient id="b" x1="0" x2="1" y1="0" y2="0" gradientTransform="scale(296.74) rotate(89.233 -.148 .754)"
                        gradientUnits="userSpaceOnUse"><stop offset="0" style="stop-color:white;stop-opacity:1"/>
            <stop offset=".56" style="stop-color:#55cafd;stop-opacity:1"/>
            <stop offset="1" style="stop-color:#0cb3fc;stop-opacity:1"/></linearGradient></defs></svg>