<?xml version="1.0" encoding="UTF-8" standalone="no"?>
<!DOCTYPE svg PUBLIC "-//W3C//DTD SVG 1.1//EN" "http://www.w3.org/Graphics/SVG/1.1/DTD/svg11.dtd">
<svg width="100%" height="100%" viewBox="0 0 675 675" version="1.1" xmlns="http://www.w3.org/2000/svg" xmlns:xlink="http://www.w3.org/1999/xlink" xml:space="preserve" xmlns:serif="http://www.serif.com/" style="fill-rule:evenodd;clip-rule:evenodd;stroke-linejoin:round;stroke-miterlimit:2;">
    <g id="Tavola-da-disegno1" serif:id="Tavola da disegno1" transform="matrix(1.03182,0,0,1.04603,0,0)">
        <rect x="0" y="0" width="654" height="645" style="fill:none;"/>
        <g id="_-0162acff" serif:id="#0162acff" transform="matrix(0.969158,0,0,0.955996,9.11748,14.4978)">
            <path d="M315.29,0L339.23,0L337.87,0.4C329.9,0.82 321.9,0.68 313.94,0.37L315.29,0Z" style="fill:rgb(1,98,172);fill-rule:nonzero;"/>
            <path d="M253.24,221.62C255.8,219 258.7,216.75 261.72,214.68C264.3,220.4 267.11,226.07 270.88,231.11C277.77,240.2 286.7,247.54 296.34,253.54C307.68,261.14 320.57,265.87 333.2,270.79C349.54,276.42 366.05,281.57 382.65,286.39C396.03,289.33 409.23,293.28 422.91,294.63C439.91,296.97 457.98,298.69 474.34,292.31C479.14,290.6 483.24,287.44 488.03,285.71C486.46,288.57 483.69,290.43 481.09,292.26C472.34,298.31 461.51,300.94 450.96,300.63C438.19,300.88 425.47,299.58 412.87,297.68C404.52,296.54 396.46,293.94 388.11,292.79C381.13,291.08 373.94,290.18 367.12,287.86C360.1,285.58 352.73,284.67 345.67,282.53C328.28,277.49 310.76,272.41 294.46,264.41C284.53,259.22 274.65,253.29 267.38,244.6C261.04,238.07 256.54,230.05 253.24,221.62Z" style="fill:rgb(1,98,172);fill-rule:nonzero;"/>
            <path d="M252.19,377.34C255.58,380.85 257.82,385.29 261,389C268.69,398.3 276.68,407.35 284.24,416.76C284.69,417.39 285.04,418.08 285.29,418.82C286.53,422.59 289.28,425.56 291.35,428.89C301.78,443.78 308.8,460.84 313.66,478.29C319.3,497.23 319.36,517.54 315.6,536.85C313.61,545.61 310.2,554.04 305.91,561.93C302.21,568.07 297.87,573.82 293.28,579.32C287.15,586.56 279.55,592.33 271.87,597.81C269.54,599.39 267.12,601.31 264.15,601.24C236.04,591.32 208.77,578.42 184.29,561.33C199.86,560.8 215.2,556.15 228.93,548.89C245.18,539.61 258.79,525.03 265.19,507.28C273.28,486.39 272.78,462.82 265.39,441.82C259.09,423.59 249.04,406.9 238,391.18C226.57,376.3 215.71,360.93 206.48,344.57C198.36,329.48 191.89,313.42 188.55,296.57C187.26,290.7 186.13,284.76 186.2,278.72C185.85,271.92 186.02,265.12 186.43,258.33C187.78,244.5 191.71,231.01 197.45,218.38C205.31,201.69 215.93,186.07 230.09,174.09C241.94,163.93 255.57,155.53 270.59,151.01C277.95,148.6 285.43,146.38 293.14,145.41C313.78,142.26 334.64,145.81 354.81,150.24C364.09,152.09 373.39,153.83 382.53,156.31C398.6,159.63 414.08,167.6 424.66,180.34C429.99,186.52 435.97,192.27 443.06,196.39C455.05,203.3 468.22,207.72 480.92,213.09C492.93,218.27 503.25,227.8 508.28,239.98C511.03,245.73 510.71,252.24 510.59,258.44C510.28,261.5 508.84,264.29 507.2,266.84C503.13,263.83 498,262.06 492.92,262.85C485.52,263.34 479.44,267.92 472.97,271.03C463.57,276.13 452.68,277.87 442.08,277.6C427.97,277.87 414.2,274.37 400.54,271.3C393.2,269.65 386.03,267.42 378.85,265.22C368.08,261.57 357.22,257.69 347.71,251.33C342.97,248.08 338.71,244.18 334.73,240.04C327.31,242.6 319.62,244.25 311.81,245.05C318.93,253.8 328.76,259.95 338.53,265.39C349.08,270.76 359.74,276.02 371.04,279.63C379.62,282.35 388.14,285.33 396.97,287.14C415.65,291.54 434.86,294.52 454.1,293.49C460.54,292.89 467.01,291.68 472.94,289.01C477.16,287.17 480.97,284.55 485.02,282.37C486.39,283.33 487.75,284.29 489.12,285.26L488.03,285.71C483.24,287.44 479.14,290.6 474.34,292.31C457.98,298.69 439.91,296.97 422.91,294.63C409.23,293.28 396.03,289.33 382.65,286.39C366.05,281.57 349.54,276.42 333.2,270.79C320.57,265.87 307.68,261.14 296.34,253.54C286.7,247.54 277.77,240.2 270.88,231.11C267.11,226.07 264.3,220.4 261.72,214.68C258.7,216.75 255.8,219 253.24,221.62C234.84,238.91 224.91,263.98 224.18,289.01C224,297.41 223.98,305.89 225.68,314.16C228.94,337.08 239.4,358.3 252.19,377.34ZM452,236.89C447.66,239.83 445.63,244.97 446.13,250.13C454.78,246.7 464.64,246.32 473.27,250.02C476.77,238.71 460.53,229.4 452,236.89ZM340.48,183.35C332.96,188.03 327.28,195.26 324.17,203.54C328.55,202.97 332.94,202.44 337.37,202.37C335.91,208.65 336.13,215.73 339.75,221.28C344.26,228.74 352.23,234.25 360.98,235.14C369.45,235.66 378.1,233.01 384.58,227.46C393.97,229.11 403.51,228.05 412.97,228.69C406,225.14 399.5,220.56 393.85,215.16C394.54,202 387.89,188.33 376.22,181.85C365.22,175.67 351.04,176.73 340.48,183.35Z" style="fill:url(#_Linear1);"/>
        </g>
        <g id="_-011d4aff" serif:id="#011d4aff" transform="matrix(0.969158,0,0,0.955996,9.11748,14.4978)">
            <path d="M246,10.18C264.4,5.68 283.16,2.54 302.05,1.01C306.02,0.91 310.01,1.09 313.94,0.37C321.9,0.68 329.9,0.82 337.87,0.4C344.25,1.35 350.73,0.51 357.1,1.52C379.26,3.18 401.25,7.33 422.54,13.7C440.37,19.28 458.06,25.6 474.66,34.26C507.07,49.99 536.71,71.41 561.79,97.26C566.04,101.71 569.88,106.52 574.25,110.87C583.83,122.58 593.43,134.32 601.71,147C611.79,162.31 620.41,178.54 627.65,195.36C636.59,215.31 642.72,236.39 647.3,257.73C649.89,268.45 651.53,279.39 652.45,290.37C653.35,294.62 652.42,299.12 654,303.23L654,336.07C653.06,339.3 652.98,342.66 652.98,346C651.22,368.15 647.26,390.12 641.29,411.53C638.52,419.76 636.44,428.23 633.3,436.34C625.28,457.19 615.48,477.42 603.07,496.02C570.27,545.05 525.02,586.07 471.74,611.73C451.79,621.75 430.54,628.98 409,634.69C392.17,638.45 375.25,642.18 358.03,643.52C353.28,644.59 348.22,643.14 343.64,645L314.91,645C313.13,643.54 310.69,643.26 308.64,644.34C272.26,642.84 236.3,634.1 202.68,620.25C173.68,608.52 146.64,592.19 122.18,572.74C112.96,565.39 104.46,557.21 95.77,549.25C80.36,533.16 65.91,516.05 53.35,497.61C46.21,486.3 39.11,474.94 33.08,463C29.86,455.62 26.12,448.48 23.19,440.97C14.4,418.47 8.66,394.89 4.33,371.16C2.43,358.46 1.09,345.67 0.62,332.85C0.55,326.19 0.44,300.06 1.63,293.73C2.87,276.07 6.73,258.72 10.7,241.51C15.99,222.78 22.46,204.34 30.69,186.69C45.66,156 65.1,127.45 88.72,102.76C96.02,95.74 102.74,88.08 110.63,81.7C127.1,66.62 145.83,54.3 164.96,42.88C190.37,28.46 217.81,17.78 246,10.18M269.98,49.02C253.34,52.87 236.71,57.16 220.98,63.91C209.07,69.02 197.22,74.33 185.99,80.82C158.27,97.47 132.55,117.87 111.79,142.79C80.06,180.08 56.83,225.29 48.63,273.78C46.03,288.8 44.49,304.03 44.48,319.27C44.45,355.77 50.16,392.66 64.5,426.39C71.25,443.27 80.05,459.41 91.27,473.75C102.9,487.83 118.03,498.98 134.84,506.09C145.48,510.36 156.68,513.15 167.96,515.11C178.26,516.55 188.99,516.7 198.99,513.54C208.68,510.63 217.1,503.84 221.99,494.99C228.09,484.53 228.79,471.83 227.2,460.08C224.02,439.93 212.52,422.54 200.7,406.42C192.16,395.12 184.29,383.34 176.48,371.53C159.29,344.14 148.01,312.53 146.96,280.03C146.01,258.75 148.3,237.17 155.11,216.92C160.69,200.58 168.99,185.16 179.45,171.42C191.98,153.87 208.31,139.23 226.39,127.58C242.44,117.44 260.46,110.86 278.84,106.38C292.32,103.33 306.15,101.82 319.97,102.19C340.49,102.37 360.62,106.86 380.55,111.27C400.41,115.77 420.95,120.95 437.37,133.61C445.66,139.52 452.79,146.88 459.23,154.73C463.09,159.51 467.46,164.02 472.75,167.23C481.43,172.49 491.44,174.92 500.32,179.79C511.95,185.85 522.43,194.64 529.11,206.03C535.46,216.2 539.45,228.01 539.32,240.08C539.29,258.74 531.57,277.46 517.59,290C520.76,295.18 523.88,300.42 526.44,305.94C533.99,322.33 535.91,340.55 536.88,358.36C528.7,347.59 522.53,335.5 515.43,324.03C510.38,337.52 502.8,350.16 492.31,360.14C494.39,351.15 496.7,342.19 497.81,333.02C498.7,324.44 499.3,315.83 499.17,307.2C484.82,320.92 464.47,326.55 444.98,326.17C412.63,325.24 381.08,317.25 349.5,310.94C348.07,318.2 348.27,325.78 350.47,332.88C354.3,347.66 364.79,359.25 374.21,370.79C383.27,381.09 392.67,391.12 401.02,402.01C410.83,415.24 420.33,428.91 426.81,444.12C433.76,458.65 437.78,474.35 441.14,490.04C444.06,507.53 443.93,525.49 441.36,543.02C439.11,557.11 435.41,571.11 428.55,583.71C444.36,576.97 459.64,569.04 474.54,560.47C488.83,552.27 501.77,541.95 514.39,531.42C531.83,516.48 546.73,498.86 560.28,480.39C590.21,438.37 607.13,387.46 609.48,336C609.82,327.57 610.62,319.12 609.68,310.7C609.48,290.51 605.71,270.53 600.86,250.99C597.7,239.46 593.53,228.22 589.34,217.03C578.59,191.34 563.66,167.49 545.98,146.02C517.04,111.76 480.64,83.37 439.24,65.81C408.1,52.64 374.64,45.27 340.98,42.7C317.19,42.1 293.18,43.47 269.98,49.02M278.05,135.54C257.17,141.28 237.35,151.52 221.49,166.39C197.41,187.66 181.45,217.65 176.33,249.29L176.31,248.81C174.55,260.81 175.02,272.98 175.56,285.05C177.27,299.68 180.62,314.18 185.95,327.93C190.02,337.34 194.27,346.71 199.41,355.6C211.95,376.16 227.36,394.84 239.64,415.57C245.76,426.09 250.15,437.49 253.8,449.06C255.37,456.93 257.17,464.9 256.78,473.03C257.4,503.73 239.45,534.45 211.37,547.5C200.42,553.08 188.11,555.16 175.95,555.86C178.54,557.95 181.56,559.41 184.29,561.33C208.77,578.42 236.04,591.32 264.15,601.24C274.02,604.25 284.05,606.71 294.02,609.41C295.57,610.12 296.78,608.69 297.87,607.85C311.13,596.15 321.43,580.97 326.75,564.06C330.65,551.09 333.28,537.49 331.9,523.9C330.88,505.89 325.78,488.34 318.48,471.91C310.55,452.46 298.52,435.01 285.29,418.82C285.04,418.08 284.69,417.39 284.24,416.76C276.68,407.35 268.69,398.3 261,389C257.82,385.29 255.58,380.85 252.19,377.34C239.4,358.3 228.94,337.08 225.68,314.16C223.98,305.89 224,297.41 224.18,289.01C224.91,263.98 234.84,238.91 253.24,221.62C256.54,230.05 261.04,238.07 267.38,244.6C274.65,253.29 284.53,259.22 294.46,264.41C310.76,272.41 328.28,277.49 345.67,282.53C352.73,284.67 360.1,285.58 367.12,287.86C373.94,290.18 381.13,291.08 388.11,292.79C396.46,293.94 404.52,296.54 412.87,297.68C425.47,299.58 438.19,300.88 450.96,300.63C461.51,300.94 472.34,298.31 481.09,292.26C483.69,290.43 486.46,288.57 488.03,285.71L489.12,285.26C487.75,284.29 486.39,283.33 485.02,282.37C480.97,284.55 477.16,287.17 472.94,289.01C467.01,291.68 460.54,292.89 454.1,293.49C434.86,294.52 415.65,291.54 396.97,287.14C388.14,285.33 379.62,282.35 371.04,279.63C359.74,276.02 349.08,270.76 338.53,265.39C328.76,259.95 318.93,253.8 311.81,245.05C319.62,244.25 327.31,242.6 334.73,240.04C338.71,244.18 342.97,248.08 347.71,251.33C357.22,257.69 368.08,261.57 378.85,265.22C386.03,267.42 393.2,269.65 400.54,271.3C414.2,274.37 427.97,277.87 442.08,277.6C452.68,277.87 463.57,276.13 472.97,271.03C479.44,267.92 485.52,263.34 492.92,262.85C498,262.06 503.13,263.83 507.2,266.84C508.84,264.29 510.28,261.5 510.59,258.44C512.14,252.09 513.91,245.59 513.04,238.99C512.38,229.42 508.27,220.18 501.94,213.02C493.62,204.06 481.87,199.75 470.91,195.02C462.71,191.88 455.06,187.31 448.45,181.53C442.18,176.05 437.47,169.12 431.89,163C421.02,151.64 405.97,145.54 390.97,141.86C378.01,138.92 365.01,136.14 352,133.43C341.43,131.44 330.8,129.29 320,129.32C305.77,128.99 291.71,131.86 278.05,135.54M239.72,295.26C248.52,305.94 261.36,312.59 274.56,316.08C278.23,317.27 282.13,317.57 285.96,317.9C296.96,318.7 308.92,317.75 318.07,310.98C320.02,307.92 320.7,304.27 321.7,300.83C305.94,296.81 290.41,291.59 275.79,284.41C275.79,284.41 254.37,268.68 246.31,258.26C240.76,269.71 239.51,282.69 239.72,295.26M241.83,316.63C244.06,325.72 246.44,335.25 252.07,342.9C262.14,352.36 275.58,357.71 289.22,359.25C302.26,360.6 316.97,359.74 327.27,350.63C323.86,342.78 320.95,334.49 320.7,325.85C306.66,333.71 289.77,333.64 274.27,331.33C262.74,328.31 251.5,323.7 241.83,316.63M326.41,368.57C317.29,372.61 307.34,374.62 297.39,374.83C286.01,374.92 274.81,372.06 264.38,367.64C269.57,375 274.52,382.63 281.11,388.85C293.72,401.65 310.4,411.22 328.61,412.3C341.61,413.7 356.34,410.93 365.7,401.16C361.88,397.7 358.18,394.08 354.99,390.03C347.84,381.29 340.05,372.97 334.33,363.17C331.85,365.19 329.4,367.33 326.41,368.57M340.28,427.06C329.04,428.33 317.58,426.78 306.95,422.99C316.22,434.16 324.15,446.43 330.31,459.58C340.27,465.47 350.3,471.97 362.02,473.62C370.64,474.72 379.65,474 387.82,470.95C394.37,468.53 399.45,463.3 402.47,457.08C397.39,445.53 391.42,434.33 383.95,424.14C380.78,420.26 377.82,416.22 374.94,412.13C366.1,421.6 353.01,426.33 340.28,427.06M398.86,480.86C391.01,486.13 381.54,488.46 372.21,489.04C360.49,489.49 348.6,487.14 338.44,481.13C343.33,494.55 347,508.66 346.88,523.04C346.98,524.88 346.66,526.82 347.32,528.59C353.4,533.62 360.5,537.33 367.77,540.33C377.56,543.18 388.23,543.95 398.05,540.85C404.26,538.88 409.6,534.64 413.2,529.25C414.6,526.9 414.71,524.08 415.1,521.44C415.72,511.07 414.99,500.63 412.96,490.46C411.39,484.3 409.84,478.14 408.18,472.01C405.12,475 402.29,478.28 398.86,480.86M345.65,545.99C345.14,555.89 342.53,565.6 338.77,574.74C333.61,587.96 326.05,600.23 316.29,610.56C315.57,610.9 314.85,611.26 314.14,611.63C332.73,613 351.56,612.45 369.85,608.64C373.35,607.64 377.76,608.27 380.36,605.28C382.33,603.27 384.33,601.29 386.31,599.3C400.01,585.3 408.03,566.72 412.7,547.94C409.31,550.3 406.07,552.98 402.15,554.42C390.19,559.01 376.68,558.52 364.62,554.57C358.04,552.31 351.71,549.37 345.65,545.99Z" style="fill:rgb(1,29,74);fill-rule:nonzero;"/>
            <path d="M340.48,183.35C351.04,176.73 365.22,175.67 376.22,181.85C387.89,188.33 394.54,202 393.85,215.16C399.5,220.56 406,225.14 412.97,228.69C403.51,228.05 393.97,229.11 384.58,227.46C378.1,233.01 369.45,235.66 360.98,235.14C352.23,234.25 344.26,228.74 339.75,221.28C336.13,215.73 335.91,208.65 337.37,202.37C332.94,202.44 328.55,202.97 324.17,203.54C327.28,195.26 332.96,188.03 340.48,183.35M356.07,193.91C349.2,196.1 346.06,204.3 347.61,210.94C349.2,219.88 359.99,225.96 368.36,222.21C369.94,221.31 368.03,220.27 367.22,219.84C362.24,216.93 359.58,210.36 361.91,204.93C362.91,202.17 365.78,200.92 368.38,200.11C367.82,194.51 360.81,192.07 356.07,193.91Z" style="fill:rgb(1,29,74);fill-rule:nonzero;"/>
            <path d="M452,236.89C460.53,229.4 476.77,238.71 473.27,250.02C464.64,246.32 454.78,246.7 446.13,250.13C445.63,244.97 447.66,239.83 452,236.89Z" style="fill:rgb(1,29,74);fill-rule:nonzero;"/>
        </g>
        <g id="_-ffffffff" serif:id="#ffffffff" transform="matrix(0.969158,0,0,0.955996,9.11748,14.4978)">
            <path d="M269.98,49.02C293.18,43.47 317.19,42.1 340.98,42.7C374.64,45.27 408.1,52.64 439.24,65.81C480.64,83.37 517.04,111.76 545.98,146.02C563.66,167.49 578.59,191.34 589.34,217.03C593.53,228.22 597.7,239.46 600.86,250.99C605.71,270.53 609.48,290.51 609.68,310.7C609.2,315.82 609.21,320.96 609.07,326.09C600.17,318.58 591.1,311.26 582.13,303.85C581.77,316.22 582.79,328.67 581.06,340.97C578.27,360.64 575.16,380.43 568.3,399.16C565.11,408.94 560.74,418.26 556.47,427.6C551.35,436.76 546.95,446.35 540.88,454.94C529.06,473.55 514.3,490.13 498.14,505.06C491.6,510.19 485.72,516.13 478.8,520.77C466.92,529.13 454.31,536.43 441.36,543.02C443.93,525.49 444.06,507.53 441.14,490.04C437.78,474.35 433.76,458.65 426.81,444.12C420.33,428.91 410.83,415.24 401.02,402.01C392.67,391.12 383.27,381.09 374.21,370.79C364.79,359.25 354.3,347.66 350.47,332.88C348.27,325.78 348.07,318.2 349.5,310.94C381.08,317.25 412.63,325.24 444.98,326.17C464.47,326.55 484.82,320.92 499.17,307.2C499.3,315.83 498.7,324.44 497.81,333.02C496.7,342.19 494.39,351.15 492.31,360.14C502.8,350.16 510.38,337.52 515.43,324.03C522.53,335.5 528.7,347.59 536.88,358.36C535.91,340.55 533.99,322.33 526.44,305.94C523.88,300.42 520.76,295.18 517.59,290C531.57,277.46 539.29,258.74 539.32,240.08C539.45,228.01 535.46,216.2 529.11,206.03C522.43,194.64 511.95,185.85 500.32,179.79C491.44,174.92 481.43,172.49 472.75,167.23C467.46,164.02 463.09,159.51 459.23,154.73C452.79,146.88 445.66,139.52 437.37,133.61C420.95,120.95 400.41,115.77 380.55,111.27C360.62,106.86 340.49,102.37 319.97,102.19C306.15,101.82 292.32,103.33 278.84,106.38C260.46,110.86 242.44,117.44 226.39,127.58C208.31,139.23 191.98,153.87 179.45,171.42C168.99,185.16 160.69,200.58 155.11,216.92C148.3,237.17 146.01,258.75 146.96,280.03C148.01,312.53 159.29,344.14 176.48,371.53C184.29,383.34 192.16,395.12 200.7,406.42C212.52,422.54 224.02,439.93 227.2,460.08C228.79,471.83 228.09,484.53 221.99,494.99C217.1,503.84 208.68,510.63 198.99,513.54C188.99,516.7 178.26,516.55 167.96,515.11C169.98,515.09 172.01,514.97 174.03,514.85C165.78,509.28 158.15,502.85 150.75,496.21C144.32,489.69 137.31,483.7 131.58,476.52C126.45,470.57 121.28,464.59 117.17,457.87C109.76,446.5 101.59,435.46 96.22,422.92C90.25,410.27 84.78,397.27 81.43,383.65C76.68,365.12 73.2,346.17 72.36,327.02C72.13,317.31 71.9,307.6 72.12,297.88C62.72,304.76 53.63,312.06 44.48,319.27C44.49,304.03 46.03,288.8 48.63,273.78C56.83,225.29 80.06,180.08 111.79,142.79C132.55,117.87 158.27,97.47 185.99,80.82C197.22,74.33 209.07,69.02 220.98,63.91C236.71,57.16 253.34,52.87 269.98,49.02Z" style="fill:rgb(217,249,255);fill-rule:nonzero;"/>
            <path d="M278.05,135.54C291.71,131.86 305.77,128.99 320,129.32C330.8,129.29 341.43,131.44 352,133.43C365.01,136.14 378.01,138.92 390.97,141.86C405.97,145.54 421.02,151.64 431.89,163C437.47,169.12 442.18,176.05 448.45,181.53C455.06,187.31 462.71,191.88 470.91,195.02C481.87,199.75 493.62,204.06 501.94,213.02C508.27,220.18 512.38,229.42 513.04,238.99C513.91,245.59 512.14,252.09 510.59,258.44C510.71,252.24 511.03,245.73 508.28,239.98C503.25,227.8 492.93,218.27 480.92,213.09C468.22,207.72 455.05,203.3 443.06,196.39C435.97,192.27 429.99,186.52 424.66,180.34C414.08,167.6 398.6,159.63 382.53,156.31C373.39,153.83 364.09,152.09 354.81,150.24C334.64,145.81 313.78,142.26 293.14,145.41C285.43,146.38 277.95,148.6 270.59,151.01C255.57,155.53 241.94,163.93 230.09,174.09C215.93,186.07 205.31,201.69 197.45,218.38C191.71,231.01 187.78,244.5 186.43,258.33C185.999,260.683 184.494,265.986 183.56,267.11C182.437,268.463 180.67,266.17 180.32,264.62C178.79,260.28 176.35,249.82 176.33,249.29C181.45,217.65 197.41,187.66 221.49,166.39C237.35,151.52 257.17,141.28 278.05,135.54Z" style="fill:white;fill-rule:nonzero;"/>
            <path d="M356.07,193.91C360.81,192.07 367.82,194.51 368.38,200.11C365.78,200.92 362.91,202.17 361.91,204.93C359.58,210.36 362.24,216.93 367.22,219.84C368.03,220.27 369.94,221.31 368.36,222.21C359.99,225.96 349.2,219.88 347.61,210.94C346.06,204.3 349.2,196.1 356.07,193.91Z" style="fill:white;fill-rule:nonzero;"/>
            <path d="M274.56,316.08C273.82,305.5 274.55,294.91 275.79,284.41C290.41,291.59 305.94,296.81 321.7,300.83C320.7,304.27 320.02,307.92 318.07,310.98C308.92,317.75 296.96,318.7 285.96,317.9C282.13,317.57 278.23,317.27 274.56,316.08Z" style="fill:white;fill-rule:nonzero;"/>
            <path d="M277.481,331.772C293.087,333.129 306.122,333.615 320.7,325.85C320.95,334.49 323.86,342.78 327.27,350.63C316.97,359.74 302.26,360.6 289.22,359.25C286.89,353.47 284.04,347.92 281.86,342.08C280.6,339.07 278.483,334.178 277.481,331.772Z" style="fill:white;fill-rule:nonzero;"/>
            <path d="M326.41,368.57C329.4,367.33 331.85,365.19 334.33,363.17C340.05,372.97 347.84,381.29 354.99,390.03C358.18,394.08 361.88,397.7 365.7,401.16C356.34,410.93 341.61,413.7 328.61,412.3C322.71,403.72 315.49,396.16 309.12,387.94C305.6,383.22 301.18,379.31 297.39,374.83C307.34,374.62 317.29,372.61 326.41,368.57Z" style="fill:white;fill-rule:nonzero;"/>
            <path d="M340.28,427.06C353.01,426.33 366.1,421.6 374.94,412.13C377.82,416.22 380.78,420.26 383.95,424.14C391.42,434.33 397.39,445.53 402.47,457.08C399.45,463.3 394.37,468.53 387.82,470.95C379.65,474 370.64,474.72 362.02,473.62C357.42,460.15 351.65,447.02 343.91,435.04C342.44,432.52 340.17,430.17 340.28,427.06Z" style="fill:white;fill-rule:nonzero;"/>
            <path d="M398.86,480.86C402.29,478.28 405.12,475 408.18,472.01C409.84,478.14 411.39,484.3 412.96,490.46C414.99,500.63 415.72,511.07 415.1,521.44C414.71,524.08 414.6,526.9 413.2,529.25C409.6,534.64 404.26,538.88 398.05,540.85C388.23,543.95 377.56,543.18 367.77,540.33C370.62,523.59 369.98,506.45 367.02,489.78C368.74,489.52 370.47,489.26 372.21,489.04C381.54,488.46 391.01,486.13 398.86,480.86Z" style="fill:white;fill-rule:nonzero;"/>
            <path d="M402.15,554.42C406.07,552.98 409.31,550.3 412.7,547.94C408.03,566.72 400.01,585.3 386.31,599.3C384.33,601.29 382.33,603.27 380.36,605.28C377.76,608.27 373.35,607.64 369.85,608.64C351.56,612.45 332.73,613 314.14,611.63C314.85,611.26 315.57,610.9 316.29,610.56C321.05,611.89 326.12,611.97 331.02,611.6C334.89,608.65 337.92,604.75 341.01,601.02C351.69,587.27 361.14,571.83 364.62,554.57C376.68,558.52 390.19,559.01 402.15,554.42Z" style="fill:white;fill-rule:nonzero;"/>
        </g>
        <g id="_-0cb3fcff" serif:id="#0cb3fcff" transform="matrix(0.969158,0,0,0.955996,9.11748,14.4978)">
            <path d="M291.35,428.89C289.28,425.56 286.53,422.59 285.29,418.82C298.52,435.01 310.55,452.46 318.48,471.91C325.78,488.34 330.88,505.89 331.9,523.9C333.28,537.49 330.65,551.09 326.75,564.06C321.43,580.97 311.13,596.15 297.87,607.85C296.78,608.69 295.57,610.12 294.02,609.41C284.05,606.71 274.02,604.25 264.15,601.24C267.12,601.31 269.54,599.39 271.87,597.81C279.55,592.33 287.15,586.56 293.28,579.32C297.87,573.82 302.21,568.07 305.91,561.93C310.2,554.04 313.61,545.61 315.6,536.85C319.36,517.54 319.3,497.23 313.66,478.29C308.8,460.84 301.78,443.78 291.35,428.89Z" style="fill:rgb(12,179,252);fill-rule:nonzero;"/>
            <path d="M253.8,449.06C250.15,437.49 245.76,426.09 239.64,415.57C227.36,394.84 211.95,376.16 199.41,355.6C194.27,346.71 190.02,337.34 185.95,327.93C180.62,314.18 177.27,299.68 175.56,285.05C175.02,272.98 174.55,260.81 176.31,248.81L176.33,249.29C176.33,249.29 178.79,260.28 180.32,264.62C180.67,266.17 182.906,268.305 183.56,267.11C184.712,265.006 186.316,259.346 186.43,258.33C186.02,265.12 185.85,271.92 186.2,278.72C186.13,284.76 187.26,290.7 188.55,296.57C191.89,313.42 198.36,329.48 206.48,344.57C215.71,360.93 226.57,376.3 238,391.18C249.04,406.9 259.09,423.59 265.39,441.82C272.78,462.82 273.28,486.39 265.19,507.28C258.79,525.03 245.18,539.61 228.93,548.89C215.2,556.15 199.86,560.8 184.29,561.33C181.56,559.41 178.54,557.95 175.95,555.86C188.11,555.16 200.42,553.08 211.37,547.5C239.45,534.45 257.4,503.73 256.78,473.03C257.17,464.9 255.37,456.93 253.8,449.06Z" style="fill:url(#_Linear2);"/>
        </g>
        <g id="_-d1f0f4ff" serif:id="#d1f0f4ff" transform="matrix(0.969158,0,0,0.955996,9.11748,14.4978)">
            <path d="M44.48,319.27C53.63,312.06 62.72,304.76 72.12,297.88C71.9,307.6 72.13,317.31 72.36,327.02C73.2,346.17 76.68,365.12 81.43,383.65C84.78,397.27 90.25,410.27 96.22,422.92C101.59,435.46 109.76,446.5 117.17,457.87C121.28,464.59 126.45,470.57 131.58,476.52C137.31,483.7 144.32,489.69 150.75,496.21C158.15,502.85 165.78,509.28 174.03,514.85C172.01,514.97 169.98,515.09 167.96,515.11C156.68,513.15 145.48,510.36 134.84,506.09C118.03,498.98 102.9,487.83 91.27,473.75C80.05,459.41 71.25,443.27 64.5,426.39C50.16,392.66 44.45,355.77 44.48,319.27Z" style="fill:rgb(149,223,255);fill-rule:nonzero;"/>
            <path d="M582.13,303.85C591.1,311.26 600.17,318.58 609.07,326.09C609.21,320.96 609.2,315.82 609.68,310.7C610.62,319.12 609.82,327.57 609.48,336C607.13,387.46 590.21,438.37 560.28,480.39C546.73,498.86 531.83,516.48 514.39,531.42C501.77,541.95 488.83,552.27 474.54,560.47C459.64,569.04 444.36,576.97 428.55,583.71C435.41,571.11 439.11,557.11 441.36,543.02C454.31,536.43 466.92,529.13 478.8,520.77C485.72,516.13 491.6,510.19 498.14,505.06C514.3,490.13 529.06,473.55 540.88,454.94C546.95,446.35 551.35,436.76 556.47,427.6C560.74,418.26 565.11,408.94 568.3,399.16C575.16,380.43 578.27,360.64 581.06,340.97C582.79,328.67 581.77,316.22 582.13,303.85Z" style="fill:rgb(149,223,255);fill-rule:nonzero;"/>
        </g>
        <g id="_-8dd0e4ff" serif:id="#8dd0e4ff" transform="matrix(0.969158,0,0,0.955996,9.11748,14.4978)">
            <path d="M239.72,295.26C239.51,282.69 240.76,269.71 246.31,258.26C254.37,268.68 275.79,284.41 275.79,284.41C274.55,294.91 273.82,305.5 274.56,316.08C261.36,312.59 248.52,305.94 239.72,295.26Z" style="fill:rgb(141,208,228);fill-rule:nonzero;"/>
            <path d="M241.83,316.63C251.5,323.7 277.481,331.772 277.481,331.772C277.481,331.772 280.6,339.07 281.86,342.08C284.04,347.92 286.89,353.47 289.22,359.25C275.58,357.71 262.14,352.36 252.07,342.9C246.44,335.25 244.06,325.72 241.83,316.63Z" style="fill:rgb(141,208,228);fill-rule:nonzero;"/>
            <path d="M264.38,367.64C274.81,372.06 286.01,374.92 297.39,374.83C301.18,379.31 305.6,383.22 309.12,387.94C315.49,396.16 322.71,403.72 328.61,412.3C310.4,411.22 293.72,401.65 281.11,388.85C274.52,382.63 269.57,375 264.38,367.64Z" style="fill:rgb(141,208,228);fill-rule:nonzero;"/>
            <path d="M306.95,422.99C317.58,426.78 329.04,428.33 340.28,427.06C340.17,430.17 342.44,432.52 343.91,435.04C351.65,447.02 357.42,460.15 362.02,473.62C350.3,471.97 340.27,465.47 330.31,459.58C324.15,446.43 316.22,434.16 306.95,422.99Z" style="fill:rgb(141,208,228);fill-rule:nonzero;"/>
            <path d="M338.44,481.13C348.6,487.14 360.49,489.49 372.21,489.04C370.47,489.26 368.74,489.52 367.02,489.78C369.98,506.45 370.62,523.59 367.77,540.33C360.5,537.33 353.4,533.62 347.32,528.59C346.66,526.82 346.98,524.88 346.88,523.04C347,508.66 343.33,494.55 338.44,481.13Z" style="fill:rgb(141,208,228);fill-rule:nonzero;"/>
            <path d="M345.65,545.99C351.71,549.37 358.04,552.31 364.62,554.57C361.14,571.83 351.69,587.27 341.01,601.02C337.92,604.75 334.489,609.361 330.619,612.311C325.719,612.681 318.9,612.96 314.14,611.63C323.9,601.3 333.61,587.96 338.77,574.74C342.53,565.6 345.14,555.89 345.65,545.99Z" style="fill:rgb(141,208,228);fill-rule:nonzero;"/>
        </g>
        <g transform="matrix(0.993054,0,0,0.979567,-27.7119,-22.1497)">
            <path d="M356.634,25.758C536.875,25.758 683.208,172.091 683.208,352.332C683.208,532.573 536.875,678.906 356.634,678.906C176.394,678.906 30.061,532.573 30.061,352.332C30.061,172.091 176.394,25.758 356.634,25.758ZM356.634,80.51C506.657,80.51 628.457,202.309 628.457,352.332C628.457,502.355 506.657,624.155 356.634,624.155C206.612,624.155 84.812,502.355 84.812,352.332C84.812,202.309 206.612,80.51 356.634,80.51Z" style="fill:rgb(1,29,74);"/>
        </g>
    </g>
    <defs>
        <linearGradient id="_Linear1" x1="0" y1="0" x2="1" y2="0" gradientUnits="userSpaceOnUse" gradientTransform="matrix(-86.7975,459.129,-459.129,-86.7975,332.272,129.294)"><stop offset="0" style="stop-color:rgb(10,179,251);stop-opacity:1"/><stop offset="0.41" style="stop-color:rgb(8,151,216);stop-opacity:1"/><stop offset="0.74" style="stop-color:rgb(0,50,87);stop-opacity:1"/><stop offset="1" style="stop-color:rgb(0,50,87);stop-opacity:1"/></linearGradient>
        <linearGradient id="_Linear2" x1="0" y1="0" x2="1" y2="0" gradientUnits="userSpaceOnUse" gradientTransform="matrix(3.97,296.71,-296.71,3.97,180.32,264.62)"><stop offset="0" style="stop-color:white;stop-opacity:1"/><stop offset="0.56" style="stop-color:rgb(85,202,253);stop-opacity:1"/><stop offset="1" style="stop-color:rgb(12,179,252);stop-opacity:1"/></linearGradient>
    </defs>
</svg>
