<?xml version="1.0" encoding="UTF-8" standalone="no"?><!DOCTYPE svg PUBLIC "-//W3C//DTD SVG 1.1//EN" "http://www.w3.org/Graphics/SVG/1.1/DTD/svg11.dtd"><svg width="100%" height="100%" viewBox="0 0 6300 2850" version="1.1" xmlns="http://www.w3.org/2000/svg" xmlns:xlink="http://www.w3.org/1999/xlink" xml:space="preserve" xmlns:serif="http://www.serif.com/" style="fill-rule:evenodd;clip-rule:evenodd;"><rect x="466.667" y="1703.19" width="225" height="225" style="fill:#f8f9fa;fill-rule:nonzero;"/><g><circle cx="579.167" cy="1815.69" r="58.333" style="fill:none;stroke:#e1e4e8;stroke-width:16.67px;"/><path d="M600,1815.69c0,15.683 -2.733,29.683 -6.987,39.604c-2.13,4.97 -4.559,8.725 -7.042,11.179c-2.467,2.433 -4.763,3.383 -6.804,3.383c-2.042,0 -4.338,-0.95 -6.804,-3.383c-2.484,-2.454 -4.913,-6.209 -7.042,-11.179c-4.254,-9.921 -6.988,-23.921 -6.988,-39.605c0,-15.683 2.734,-29.683 6.988,-39.608c2.129,-4.966 4.558,-8.725 7.042,-11.175c2.466,-2.437 4.762,-3.383 6.804,-3.383c2.041,-0 4.337,0.946 6.804,3.383c2.483,2.45 4.912,6.208 7.042,11.175c4.254,9.925 6.987,23.925 6.987,39.608Zm-70.833,0l100,0" style="fill:none;fill-rule:nonzero;stroke:#e1e4e8;stroke-width:8.33px;"/><path d="M537.5,1857.35c0,0 6.033,-16.667 41.667,-16.667c35.633,0 41.666,16.667 41.666,16.667m-83.333,-83.333c0,-0 6.033,16.667 41.667,16.667c35.633,-0 41.666,-16.667 41.666,-16.667" style="fill:none;fill-rule:nonzero;stroke:#e1e4e8;stroke-width:8.33px;"/></g><rect x="1379.17" y="2386.31" width="225" height="225" style="fill:#f8f9fa;fill-rule:nonzero;"/><rect x="5029.17" y="2386.52" width="225" height="225" style="fill:#f8f9fa;fill-rule:nonzero;"/><g><path d="M5084.97,2556.1c-0,25.075 13.744,34.308 32.944,34.308c5.35,-0 12.275,-0.63 12.275,-7.449c-0,-3.463 -1.889,-6.086 -7.659,-6.82c-7.134,-0.839 -20.774,0.63 -20.774,-22.032l0,-32.734c0,-14.584 -6.085,-22.348 -17.835,-23.502l-0,-2.308c11.75,-1.154 17.835,-8.498 17.835,-23.291l0,-28.748c0,-22.766 13.64,-21.193 20.774,-22.137c5.77,-0.734 7.659,-3.252 7.659,-6.715c-0,-6.924 -6.925,-7.449 -12.275,-7.449c-19.2,0 -32.944,9.128 -32.944,34.203l-0,24.865c-0,17.521 -6.4,19.62 -12.275,20.774c-4.722,1.049 -8.813,3.357 -8.813,9.757c-0,6.085 3.777,8.498 8.813,9.652c6.085,1.259 12.275,3.358 12.275,20.774l-0,28.852Z" style="fill:#e1e4e8;fill-rule:nonzero;"/><path d="M5198.26,2556.1l-0,-28.852c-0,-17.416 6.295,-19.515 12.38,-20.774c5.036,-1.154 8.813,-3.567 8.813,-9.652c-0,-6.4 -4.092,-8.708 -8.813,-9.757c-5.876,-1.154 -12.38,-3.253 -12.38,-20.774l-0,-24.865c-0,-25.075 -13.744,-34.203 -32.839,-34.203c-5.351,0 -12.38,0.525 -12.38,7.449c-0,3.463 1.888,5.981 7.658,6.715c7.24,0.944 20.879,-0.629 20.879,22.137l-0,28.748c-0,14.793 5.98,22.137 17.836,23.291l-0,2.308c-11.856,1.154 -17.836,8.918 -17.836,23.502l-0,32.734c-0,22.662 -13.639,21.193 -20.879,22.032c-5.665,0.734 -7.658,3.357 -7.658,6.82c-0,6.819 7.029,7.449 12.38,7.449c19.095,-0 32.839,-9.233 32.839,-34.308Z" style="fill:#e1e4e8;fill-rule:nonzero;"/></g><rect x="5483.33" y="1703.19" width="225" height="225" style="fill:#f8f9fa;fill-rule:nonzero;"/><rect x="4800" y="1245.7" width="225" height="225" style="fill:#f8f9fa;fill-rule:nonzero;"/><rect x="1379.17" y="1017.52" width="225" height="225" style="fill:#f8f9fa;fill-rule:nonzero;"/><rect x="1151.84" y="1928.19" width="223.161" height="227.384" style="fill:#f8f9fa;fill-rule:nonzero;"/><rect x="5483.33" y="1020.7" width="225" height="225" style="fill:#f8f9fa;fill-rule:nonzero;"/><rect x="4116.67" y="789.642" width="225" height="225" style="fill:#f8f9fa;fill-rule:nonzero;"/><rect x="2520.83" y="564.642" width="225" height="225" style="fill:#f8f9fa;fill-rule:nonzero;"/><rect x="695.833" y="790.688" width="225" height="225" style="fill:#f8f9fa;fill-rule:nonzero;"/><rect x="4116.67" y="2160.31" width="222.162" height="219.452" style="fill:#f8f9fa;fill-rule:nonzero;"/><g><path d="M817.26,878.782l74.001,-0c3.713,-0 6.723,3.01 6.723,6.723l-0,101.506c-0,3.713 -3.01,6.723 -6.723,6.723l-165.855,0c-3.713,0 -6.723,-3.01 -6.723,-6.723l-0,-101.506c-0,-3.713 3.01,-6.723 6.723,-6.723l74.221,-0c0.231,-5.686 0.91,-18.355 2.628,-28.019c1.363,-7.661 3.993,-13.667 6.459,-16.043l1.909,-1.505l2.198,-1.103l4.44,-0.79c2.613,0.011 5.77,0.928 9.071,2.84c2.928,1.695 6.223,4.29 9.442,6.653c0.897,0.659 2.115,1.422 3.144,2.04c0.576,-0.936 1.219,-2.042 1.673,-2.997c4.393,-9.251 7.926,-22.741 7.926,-22.741c1.24,-4.703 6.065,-7.514 10.768,-6.274c4.703,1.24 7.514,6.065 6.274,10.768c0,-0 -4.059,15.302 -9.047,25.807c-3.059,6.442 -7.015,11.129 -10.226,12.78l-2.32,0.915l-2.321,0.434l-3.172,-0.067l-2.699,-0.595c-2.937,-0.9 -6.342,-2.904 -9.746,-5.364c-1.669,-1.206 -3.956,-2.791 -5.883,-4.112c-0.209,0.829 -0.4,1.672 -0.537,2.44c-1.506,8.468 -2.121,19.46 -2.348,24.933Zm67.277,13.446c0,0 -152.408,0 -152.408,0c0,0 0,88.06 0,88.06c0,-0 152.408,-0 152.408,-0l0,-88.06Z" style="fill:#e1e4e8;"/><rect x="744.646" y="898.125" width="20.411" height="20.411" style="fill:#e1e4e8;"/><rect x="744.646" y="926.052" width="20.411" height="20.411" style="fill:#e1e4e8;"/><rect x="744.646" y="953.98" width="20.411" height="20.411" style="fill:#e1e4e8;"/><rect x="771.387" y="898.125" width="20.411" height="20.411" style="fill:#e1e4e8;"/><rect x="771.387" y="926.052" width="20.411" height="20.411" style="fill:#e1e4e8;"/><rect x="771.387" y="953.98" width="73.893" height="20.411" style="fill:#e1e4e8;"/><rect x="798.128" y="898.125" width="20.411" height="20.411" style="fill:#e1e4e8;"/><rect x="798.128" y="926.052" width="20.411" height="20.411" style="fill:#e1e4e8;"/><rect x="824.869" y="898.125" width="20.411" height="20.411" style="fill:#e1e4e8;"/><rect x="824.869" y="926.052" width="20.411" height="20.411" style="fill:#e1e4e8;"/><rect x="851.61" y="898.125" width="20.411" height="20.411" style="fill:#e1e4e8;"/><rect x="851.61" y="926.052" width="20.411" height="20.411" style="fill:#e1e4e8;"/><rect x="851.61" y="953.98" width="20.411" height="20.411" style="fill:#e1e4e8;"/></g><g><path d="M1576.29,1063.35l-0,133.352c-0,3.995 -3.239,7.234 -7.234,7.234l-154.777,-0c-3.995,-0 -7.234,-3.239 -7.234,-7.234l0,-133.352c0,-3.995 3.239,-7.234 7.234,-7.234l154.777,0c3.995,0 7.234,3.239 7.234,7.234Zm-14.468,7.234c0,-0 -140.309,-0 -140.309,-0.001l-0,118.885c-0,0 140.309,0 140.309,0l0,-118.884Z" style="fill:#e1e4e8;"/><path d="M1434.87,1108.74c-3.237,-2.337 -3.967,-6.862 -1.629,-10.099c2.337,-3.237 6.862,-3.967 10.099,-1.629l37.59,27.145c1.719,1.241 2.807,3.174 2.976,5.287c0.169,2.113 -0.597,4.194 -2.096,5.693l-33.508,33.509c-2.823,2.823 -7.407,2.823 -10.23,-0c-2.824,-2.823 -2.824,-7.407 -0,-10.23c-0,-0 27.502,-27.503 27.502,-27.503l-30.704,-22.173Z" style="fill:#e1e4e8;"/><path d="M1491.67,1174.53c-3.993,0 -7.234,-3.241 -7.234,-7.234c-0,-3.992 3.241,-7.233 7.234,-7.233l49.57,-0c3.992,-0 7.234,3.241 7.234,7.233c-0,3.993 -3.242,7.234 -7.234,7.234l-49.57,0Z" style="fill:#e1e4e8;"/></g><g><path d="M2576.54,679.133l-16.226,0c0,0 0,40.234 0,40.234l72.551,-0c4.366,-0 7.905,3.539 7.905,7.905l0,21.96l5.497,-3.664c3.63,-2.421 8.542,-1.438 10.962,2.192c2.42,3.63 1.438,8.542 -2.192,10.963l-22.172,14.781l-22.171,-14.781c-3.63,-2.421 -4.613,-7.333 -2.193,-10.963c2.42,-3.63 7.333,-4.613 10.963,-2.192l5.496,3.664l0,-14.055l-72.551,-0c-4.366,-0 -7.905,-3.539 -7.905,-7.905l-0,-56.044c-0,-4.366 3.539,-7.905 7.905,-7.905l24.131,-0l24.609,-25.285c1.632,-1.677 3.872,-2.622 6.211,-2.622l25.943,-0l-21.695,-14.464c-3.63,-2.42 -4.613,-7.332 -2.192,-10.962c2.42,-3.63 7.332,-4.613 10.962,-2.193l5.496,3.665l0,-20.257c0,-4.366 3.54,-7.905 7.906,-7.905l80.484,-0c4.366,-0 7.905,3.539 7.905,7.905l-0,80.023c-0,4.366 -3.539,7.905 -7.905,7.905l-23.245,0l-24.609,25.285c-1.631,1.677 -3.871,2.622 -6.21,2.622l-52.84,0c-2.339,0 -4.579,-0.945 -6.211,-2.622l-24.609,-25.285Zm57.716,-43.717l25.944,-0c2.339,-0 4.579,0.945 6.21,2.622l24.609,25.285c5.817,-0 15.34,-0 15.34,-0c-0,-0 -0,-64.213 -0,-64.213l-64.674,-0l-0,12.352l5.496,-3.665c3.63,-2.42 8.543,-1.437 10.963,2.193c2.42,3.63 1.437,8.542 -2.193,10.962l-21.695,14.464Zm-41.223,35.812l17.985,18.48l45.523,-0c-0,-0 17.985,-18.48 17.985,-18.48l-17.985,-18.48l-45.523,0l-17.985,18.48Z" style="fill:#e1e4e8;"/></g><g><path d="M4281.21,863.142c-4.678,0 -8.476,-3.797 -8.476,-8.475c0,-4.678 3.798,-8.475 8.476,-8.475l25.864,-0c4.681,-0 8.476,3.794 8.476,8.475l-0,94.622c-0,4.675 -3.785,8.467 -8.459,8.476l-164.147,0.319c-2.251,0.005 -4.411,-0.886 -6.004,-2.476c-1.593,-1.59 -2.488,-3.749 -2.488,-5.999l0,-94.622c0,-4.64 3.731,-8.418 8.371,-8.475l25.865,-0.32c4.677,-0.057 8.521,3.693 8.579,8.37c0.058,4.678 -3.693,8.522 -8.37,8.58l-17.494,0.216l-0,77.759l147.196,-0.287c0,0 0,-77.688 0,-77.688l-17.389,0Z" style="fill:#e1e4e8;"/><path d="M4216.52,967.712l-0,-18.103c-0,-4.678 3.797,-8.476 8.475,-8.476c4.678,0 8.475,3.798 8.475,8.476l0,18.103l5.893,-3.929c3.892,-2.595 9.159,-1.541 11.753,2.351c2.595,3.892 1.542,9.158 -2.35,11.753l-23.771,15.847l-23.771,-15.847c-3.892,-2.595 -4.945,-7.861 -2.35,-11.753c2.594,-3.892 7.861,-4.946 11.753,-2.351l5.893,3.929Z" style="fill:#e1e4e8;"/><path d="M4229.54,811.868l56.208,35.641c2.452,1.555 3.937,4.255 3.937,7.158c0,2.903 -1.485,5.603 -3.937,7.158l-56.208,35.642c-2.771,1.757 -6.307,1.757 -9.078,-0l-56.208,-35.642c-2.452,-1.555 -3.937,-4.255 -3.937,-7.158c-0,-2.903 1.485,-5.603 3.937,-7.158l56.208,-35.641c2.771,-1.757 6.307,-1.757 9.078,-0Zm-4.539,17.193l-40.382,25.606c-0,0 40.382,25.606 40.382,25.606l40.382,-25.606l-40.382,-25.606Z" style="fill:#e1e4e8;"/></g><g><path d="M5598.32,1146.42l0,36.161l74.243,0l-0,-92.177l-52.333,-0c-4.986,-0 -9.035,-4.049 -9.035,-9.035c0,-4.986 4.049,-9.034 9.035,-9.034l61.367,-0c4.99,-0 9.034,4.045 9.034,9.034l0,110.246c0,4.99 -4.044,9.035 -9.034,9.035l-92.311,-0c-4.99,-0 -9.035,-4.045 -9.035,-9.035l0,-45.195l-6.281,4.188c-4.149,2.765 -9.763,1.643 -12.529,-2.506c-2.765,-4.149 -1.643,-9.763 2.506,-12.529l25.339,-16.892l25.338,16.892c4.149,2.766 5.272,8.38 2.506,12.529c-2.766,4.149 -8.38,5.271 -12.528,2.506l-6.282,-4.188Z" style="fill:#e1e4e8;"/><path d="M5529.16,1197.05l0.21,-87.41c0.011,-4.548 3.712,-8.232 8.261,-8.221c4.548,0.011 8.232,3.713 8.221,8.261l-0.21,87.41l5.739,-3.807c3.79,-2.513 8.909,-1.477 11.422,2.313c2.514,3.791 1.478,8.909 -2.313,11.423l-23.15,15.353l-23.076,-15.464c-3.778,-2.532 -4.79,-7.655 -2.258,-11.433c2.532,-3.779 7.655,-4.791 11.433,-2.259l5.721,3.834Z" style="fill:#e1e4e8;"/><path d="M5503.59,1075.06l27.542,-28.299c1.701,-1.747 4.036,-2.733 6.475,-2.733l55.084,0c2.438,0 4.773,0.986 6.474,2.733l27.542,28.299c3.414,3.507 3.414,9.095 0,12.602l-27.542,28.299c-1.701,1.748 -4.036,2.734 -6.474,2.734l-55.084,-0c-2.439,-0 -4.774,-0.986 -6.475,-2.734l-27.542,-28.299c-3.413,-3.507 -3.413,-9.095 0,-12.602Zm19.081,6.301l18.75,19.265c-0,-0 47.456,-0 47.456,-0l18.749,-19.265l-18.749,-19.264c-0,-0 -47.456,-0 -47.456,-0l-18.75,19.264Z" style="fill:#e1e4e8;"/></g><g><path d="M5011.56,1349.12l0,58.733c0,4.43 -3.591,8.022 -8.022,8.022l-182.066,0c-4.431,0 -8.022,-3.592 -8.022,-8.022l-0,-58.733c-0,-4.431 3.591,-8.023 8.022,-8.023l182.066,0c4.431,0 8.022,3.592 8.022,8.023Zm-16.044,8.022l-166.022,0l0,42.688l166.022,0l-0,-42.688Z" style="fill:#e1e4e8;"/><path d="M4872.23,1349.12c0,-4.428 3.595,-8.023 8.023,-8.023c4.427,0 8.022,3.595 8.022,8.023l0,58.733c0,4.427 -3.595,8.022 -8.022,8.022c-4.428,0 -8.023,-3.595 -8.023,-8.022l0,-58.733Z" style="fill:#e1e4e8;"/><path d="M4936.73,1349.12c-0,-4.428 3.595,-8.023 8.022,-8.023c4.428,0 8.023,3.595 8.023,8.023l-0,58.733c-0,4.427 -3.595,8.022 -8.023,8.022c-4.427,0 -8.022,-3.595 -8.022,-8.022l-0,-58.733Z" style="fill:#e1e4e8;"/><path d="M4850.09,1328.64c7.304,0 11.897,-5.349 11.897,-14.129c0,-8.854 -4.648,-13.982 -11.897,-13.982c-7.249,0 -11.916,5.146 -11.916,14c-0,8.799 4.611,14.111 11.916,14.111Zm-0,-6.013c-2.398,-0 -3.948,-2.527 -3.948,-8.098c0,-5.589 1.55,-7.987 3.948,-7.987c2.398,0 3.929,2.398 3.929,7.987c-0,5.571 -1.531,8.098 -3.929,8.098Z" style="fill:#e1e4e8;fill-rule:nonzero;"/><path d="M4914.45,1328.64c2.342,0 3.91,-1.512 3.91,-3.855l0,-19.312c0,-2.675 -1.66,-4.372 -4.482,-4.372c-1.513,-0 -2.859,0.148 -4.409,1.18l-4.832,3.228c-1.033,0.701 -1.476,1.587 -1.476,2.675c-0,1.55 1.125,2.638 2.582,2.638c0.738,-0 1.162,-0.148 1.826,-0.609l2.823,-1.955l0.147,-0l0,16.527c0,2.343 1.568,3.855 3.911,3.855Z" style="fill:#e1e4e8;fill-rule:nonzero;"/><path d="M4968.53,1327.9l14.794,0c1.955,0 3.062,-1.199 3.062,-2.951c-0,-1.789 -1.107,-2.951 -3.062,-2.951l-8.448,-0l-0,-0.148l4.851,-4.187c4.132,-3.578 5.976,-5.441 5.976,-9.02c0,-4.833 -4.132,-8.097 -10.606,-8.097c-4.648,-0 -8.393,1.973 -9.795,5.146c-0.239,0.553 -0.35,1.125 -0.35,1.734c-0,1.881 1.217,3.043 3.209,3.043c1.495,0 2.435,-0.553 3.468,-2.066c0.996,-1.438 1.955,-2.084 3.357,-2.084c1.9,0 3.191,1.162 3.191,2.841c0,1.586 -0.848,2.748 -3.836,5.312l-7.323,6.272c-1.476,1.235 -2.14,2.342 -2.14,3.781c0,1.955 1.107,3.375 3.652,3.375Z" style="fill:#e1e4e8;fill-rule:nonzero;"/></g><g><path d="M5694.03,1738.54l-0,58.224c-0,4.392 -3.561,7.953 -7.953,7.953l-180.489,-0c-4.392,-0 -7.953,-3.561 -7.953,-7.953l0,-58.224c0,-4.392 3.561,-7.953 7.953,-7.953l180.489,0c4.392,0 7.953,3.561 7.953,7.953Zm-15.906,7.953l-164.583,-0l-0,42.318l164.583,0l-0,-42.318Z" style="fill:#e1e4e8;"/><path d="M5523.97,1738.54c0,-4.389 3.564,-7.953 7.953,-7.953c4.389,0 7.953,3.564 7.953,7.953l-0,58.224c-0,4.389 -3.564,7.953 -7.953,7.953c-4.389,-0 -7.953,-3.564 -7.953,-7.953l0,-58.224Z" style="fill:#e1e4e8;"/><path d="M5651.79,1738.54c-0,-4.389 3.563,-7.953 7.953,-7.953c4.389,0 7.953,3.564 7.953,7.953l-0,58.224c-0,4.389 -3.564,7.953 -7.953,7.953c-4.39,-0 -7.953,-3.564 -7.953,-7.953l-0,-58.224Z" style="fill:#e1e4e8;"/><path d="M5603.18,1821.39c0.44,1.002 0.68,2.112 0.668,3.277c-0.045,4.389 -3.645,7.916 -8.034,7.87c-4.389,-0.045 -7.916,-3.645 -7.871,-8.034c0.011,-1.028 0.216,-2.008 0.581,-2.906l-6.034,4.066c-3.64,2.453 -8.587,1.489 -11.039,-2.151c-2.453,-3.64 -1.49,-8.586 2.15,-11.039l22.231,-14.982l22.379,14.759c3.665,2.417 4.678,7.354 2.261,11.018c-2.416,3.664 -7.353,4.677 -11.017,2.261l-6.275,-4.139Zm-7.289,-4.758c0.025,-0 0.049,0 0.074,0l-0.037,-0.024l-0.037,0.024Zm-78.387,84.131c-4.379,0.299 -8.177,-3.014 -8.475,-7.393c-0.299,-4.379 3.014,-8.177 7.393,-8.476c4.379,-0.298 8.177,3.015 8.476,7.394c0.298,4.379 -3.015,8.177 -7.394,8.475Zm17.841,-1.605c-4.36,0.507 -8.311,-2.621 -8.818,-6.981c-0.507,-4.36 2.621,-8.312 6.981,-8.819c4.36,-0.507 8.311,2.621 8.818,6.981c0.507,4.36 -2.621,8.312 -6.981,8.819Zm18.012,-2.818c-4.298,0.889 -8.51,-1.879 -9.399,-6.177c-0.889,-4.298 1.879,-8.51 6.177,-9.399c4.298,-0.889 8.51,1.878 9.399,6.177c0.889,4.298 -1.878,8.509 -6.177,9.399Zm18.214,-5.341c-4.062,1.665 -8.711,-0.281 -10.375,-4.342c-1.665,-4.062 0.28,-8.711 4.342,-10.375c4.061,-1.665 8.71,0.28 10.375,4.342c1.665,4.061 -0.281,8.71 -4.342,10.375Zm17.315,-11.101c-3.096,3.111 -8.135,3.123 -11.247,0.027c-3.111,-3.096 -3.124,-8.135 -0.028,-11.247c3.096,-3.111 8.136,-3.124 11.247,-0.028c3.112,3.096 3.124,8.136 0.028,11.248Zm10.741,-18.146c-1.343,4.179 -5.826,6.481 -10.005,5.139c-4.179,-1.343 -6.481,-5.826 -5.138,-10.005c1.342,-4.179 5.825,-6.481 10.004,-5.139c4.179,1.343 6.481,5.826 5.139,10.005Zm3.48,-18.968c-0.377,4.373 -4.233,7.618 -8.606,7.241c-4.373,-0.376 -7.618,-4.232 -7.242,-8.605c0.377,-4.373 4.233,-7.618 8.606,-7.242c4.373,0.376 7.618,4.233 7.242,8.606Z" style="fill:#e1e4e8;"/></g><g><path d="M4300.81,2225.11l0,124.562c0,5.168 -4.19,9.358 -9.358,9.358l-124.562,0c-5.169,0 -9.359,-4.19 -9.359,-9.358l0,-124.562c0,-5.169 4.19,-9.359 9.359,-9.359l124.562,0c5.168,0 9.358,4.19 9.358,9.359Zm-18.717,9.359c-0,-0 -78.393,-0 -105.845,-0c0,-0 0,105.844 0,105.844c27.452,0 105.845,0 105.845,0l-0,-105.844Z" style="fill:#e1e4e8;"/><path d="M4298.58,2231.17c-3.346,3.935 -9.258,4.412 -13.192,1.066c-3.935,-3.346 -4.413,-9.257 -1.067,-13.192l29.823,-35.067c3.346,-3.935 9.257,-4.412 13.192,-1.066c3.934,3.346 4.412,9.257 1.066,13.192l-29.822,35.067Z" style="fill:#e1e4e8;"/><path d="M4174.02,2219.04c3.346,3.935 2.868,9.846 -1.066,13.192c-3.935,3.346 -9.846,2.869 -13.192,-1.066l-29.823,-35.067c-3.346,-3.935 -2.868,-9.846 1.067,-13.192c3.934,-3.346 9.846,-2.869 13.192,1.066l29.822,35.067Z" style="fill:#e1e4e8;"/><path d="M4207.38,2321.23c5.214,-0 8.116,-2.675 9.929,-9.249l1.134,-4.126l21.308,0l1.133,4.443c1.632,6.348 4.579,8.932 10.246,8.932c5.577,-0 9.612,-3.899 9.612,-9.34c-0,-2.085 -0.363,-3.899 -1.27,-6.392l-14.779,-40.441c-2.947,-8.07 -7.662,-11.515 -15.868,-11.515c-7.662,-0 -12.423,3.581 -15.234,11.515l-14.643,40.441c-0.862,2.312 -1.36,4.76 -1.36,6.438c-0,5.803 3.672,9.294 9.792,9.294Zm14.689,-27.701l6.484,-23.757l0.362,0l6.801,23.757l-13.647,-0Z" style="fill:#e1e4e8;fill-rule:nonzero;"/></g><g><path d="M1262.5,2006.1c5.059,0 9.167,4.108 9.167,9.167c-0,5.059 -4.108,9.167 -9.167,9.167l-64.167,-0c-5.028,-0 -9.166,4.137 -9.166,9.166l-0,36.667c-0,5.029 4.138,9.166 9.166,9.166l27.5,0c5.06,0 9.167,4.108 9.167,9.167c0,5.059 -4.107,9.167 -9.167,9.167l-27.5,-0c-15.086,-0 -27.5,-12.414 -27.5,-27.5l0,-36.667c0,-15.086 12.414,-27.5 27.5,-27.5l64.167,0Z" style="fill:#e1e4e8;"/><path d="M1262.5,2079.44c-5.059,0 -9.167,-4.107 -9.167,-9.166c0,-5.059 4.108,-9.167 9.167,-9.167l64.167,0c5.028,0 9.166,-4.138 9.166,-9.167l0,-36.666c0,-5.029 -4.138,-9.167 -9.166,-9.167l-27.5,0c-5.06,0 -9.167,-4.107 -9.167,-9.166c-0,-5.06 4.107,-9.167 9.167,-9.167l27.5,-0c15.086,-0 27.5,12.414 27.5,27.5l-0,36.666c-0,15.087 -12.414,27.5 -27.5,27.5l-64.167,0Z" style="fill:#e1e4e8;"/><path d="M1235,2015.27c0,5.059 -4.107,9.167 -9.167,9.167c-5.059,-0 -9.166,-4.108 -9.166,-9.167l-0,-36.667c-0,-15.086 12.414,-27.5 27.5,-27.5l36.666,0c15.086,0 27.5,12.414 27.5,27.5l0,45.834c0,15.086 -12.414,27.499 -27.5,27.499l-36.666,0c-5.029,0 -9.167,4.138 -9.167,9.167l0,45.833c0,5.029 4.138,9.167 9.167,9.167l36.666,0c5.029,0 9.167,-4.138 9.167,-9.167l-0,-36.666c-0,-5.059 4.107,-9.167 9.167,-9.167c5.059,0 9.166,4.108 9.166,9.167l0,36.666c0,15.087 -12.414,27.5 -27.5,27.5l-36.666,0c-15.086,0 -27.5,-12.413 -27.5,-27.5l-0,-45.833c-0,-15.086 12.414,-27.5 27.5,-27.5l36.666,0c5.029,0 9.167,-4.138 9.167,-9.166l-0,-45.834c-0,-5.029 -4.138,-9.166 -9.167,-9.166l-36.666,-0c-5.029,-0 -9.167,4.137 -9.167,9.166l0,36.667Z" style="fill:#e1e4e8;"/><circle cx="1250.94" cy="1990.25" r="6.776" style="fill:#e1e4e8;"/><circle cx="1269.28" cy="2100.25" r="6.776" style="fill:#e1e4e8;"/></g><path id="Griglia" d="M5938.17,-587.688l-0,3435.42m-228.042,-3435.42l0,3435.42m-228.042,-3435.42l0,3435.42m-228.041,-3435.42l-0,3435.42m-228.042,-3435.42l0,3435.42m-228.042,-3435.42l0,3435.42m-228.041,-3435.42l-0,3435.42m-228.042,-3435.42l0,3435.42m-228.025,-3435.42l0,3435.42m-228.042,-3435.42l0,3435.42m-228.041,-3435.42l-0,3435.42m-228.038,-3435.42l0,3435.42m-228.041,-3435.42l-0,3435.42m-228.042,-3435.42l-0,3435.42m-228.038,-3435.42l0,3435.42m-228.041,-3435.42l-0,3435.42m-228.042,-3435.42l0,3435.42m-228.042,-3435.42l0,3435.42m-228.037,-3435.42l-0,3435.42m-228.042,-3435.42l0,3435.42m-228.041,-3435.42l-0,3435.42m-228.042,-3435.42l-0,3435.42m-228.038,-3435.42l0,3435.42m-228.041,-3435.42l-0,3435.42m-228.042,-3435.42l0,3435.42m-228.042,-3435.42l0,3435.42m6151.18,-233.966l-6385.14,-0m6385.14,-231l-6385.14,-0m6385.14,-225.08l-6385.14,0m6385.14,-231.004l-6385.14,0m6385.14,-225.079l-6385.14,0m6385.14,-231l-6385.14,0m6385.14,-225.079l-6385.14,-0m6385.14,-231.004l-6385.14,-0m6385.14,-225.08l-6385.14,0m6385.14,-231l-6385.14,0m6385.14,-225.083l-6385.14,0m6385.14,-230.996l-6385.14,0m6385.14,-225.083l-6385.14,-0m6385.14,-231l-6385.14,-0" style="fill:none;fill-rule:nonzero;stroke:url(#_Radial1);stroke-width:5.93px;"/><path d="M1542.11,2430.79l26.366,26.365l-26.366,26.366" style="fill:none;fill-rule:nonzero;stroke:#e1e4e8;stroke-width:17.58px;stroke-linecap:round;stroke-linejoin:round;"/><path d="M1542.11,2571.41l26.366,-26.366l-26.366,-26.365" style="fill:none;fill-rule:nonzero;stroke:#e1e4e8;stroke-width:17.58px;stroke-linecap:round;stroke-linejoin:round;"/><path d="M1410.28,2457.16l26.365,0c24.107,0 43.943,19.837 43.943,43.943c-0,24.106 19.836,43.942 43.942,43.942l43.943,0" style="fill:none;fill-rule:nonzero;stroke:#e1e4e8;stroke-width:17.58px;stroke-linecap:round;stroke-linejoin:round;"/><path d="M1568.48,2457.16l-43.943,0c-9.508,-0.014 -18.767,3.073 -26.365,8.789m-35.154,70.308c-7.6,5.713 -16.858,8.798 -26.366,8.788l-26.365,0" style="fill:none;fill-rule:nonzero;stroke:#e1e4e8;stroke-width:17.58px;stroke-linecap:round;stroke-linejoin:round;"/><defs><radialGradient id="_Radial1" cx="0" cy="0" r="1" gradientUnits="userSpaceOnUse" gradientTransform="matrix(-2.45051e-13,-1333.99,2733.26,-5.02093e-13,3195.76,1470.7)"><stop offset="0" style="stop-color:#ced4da;stop-opacity:0.6"/><stop offset="0.52" style="stop-color:#ced4da;stop-opacity:0.46"/><stop offset="1" style="stop-color:#ced4da;stop-opacity:0"/></radialGradient></defs></svg>