<svg xmlns="http://www.w3.org/2000/svg" xml:space="preserve" style="fill-rule:evenodd;clip-rule:evenodd"
     viewBox="0 0 6300 2850"><path d="M5938.17-587.688v3435.42m-228.042-3435.42v3435.42m-228.042-3435.42v3435.42m-228.041-3435.42v3435.42m-228.042-3435.42v3435.42m-228.042-3435.42v3435.42M4569.92-587.688v3435.42m-228.042-3435.42v3435.42m-228.025-3435.42v3435.42m-228.042-3435.42v3435.42M3657.77-587.688v3435.42m-228.038-3435.42v3435.42m-228.041-3435.42v3435.42m-228.042-3435.42v3435.42m-228.038-3435.42v3435.42M2517.57-587.688v3435.42m-228.042-3435.42v3435.42m-228.042-3435.42v3435.42m-228.037-3435.42v3435.42m-228.042-3435.42v3435.42m-228.041-3435.42v3435.42m-228.042-3435.42v3435.42M921.286-587.688v3435.42M693.245-587.688v3435.42M465.203-587.688v3435.42M237.161-587.688v3435.42m6151.18-233.966H3.201m6385.14-231H3.201m6385.14-225.08H3.201m6385.14-231.004H3.201m6385.14-225.079H3.201m6385.14-231H3.201m6385.14-225.079H3.201m6385.14-231.004H3.201m6385.14-225.08H3.201m6385.14-231H3.201m6385.14-225.083H3.201m6385.14-230.996H3.201m6385.14-225.083H3.201m6385.14-231H3.201" style="fill:none;fill-rule:nonzero;stroke:url(#a);stroke-width:5.93px"/>
    <path d="M466.667 1703.19h225v225h-225z" style="fill:#f8f9fa;fill-rule:nonzero"/>
    <circle cx="579.167" cy="1815.69" r="58.333" style="fill:none;stroke:#e1e4e8;stroke-width:16.67px"/>
    <path d="M600 1815.69c0 15.683-2.733 29.683-6.987 39.604-2.13 4.97-4.559 8.725-7.042 11.179-2.467 2.433-4.763 3.383-6.804 3.383-2.042 0-4.338-.95-6.804-3.383-2.484-2.454-4.913-6.209-7.042-11.179-4.254-9.921-6.988-23.921-6.988-39.605 0-15.683 2.734-29.683 6.988-39.608 2.129-4.966 4.558-8.725 7.042-11.175 2.466-2.437 4.762-3.383 6.804-3.383 2.041 0 4.337.946 6.804 3.383 2.483 2.45 4.912 6.208 7.042 11.175 4.254 9.925 6.987 23.925 6.987 39.608Zm-70.833 0h100"
          style="fill:none;fill-rule:nonzero;stroke:#e1e4e8;stroke-width:8.33px"/>
    <path d="M537.5 1857.35s6.033-16.667 41.667-16.667c35.633 0 41.666 16.667 41.666 16.667m-83.333-83.333s6.033 16.667 41.667 16.667c35.633 0 41.666-16.667 41.666-16.667"
          style="fill:none;fill-rule:nonzero;stroke:#e1e4e8;stroke-width:8.33px"/>
    <path d="M1379.17 2386.31h225v225h-225zM5029.17 2386.52h225v225h-225zM5483.33 1703.19h225v225h-225zM4800 1245.7h225v225h-225zM1379.17 1017.52h225v225h-225zM1150 1928.19h225v229.167h-225z"
          style="fill:#f8f9fa;fill-rule:nonzero"/>
    <path d="M5141.56 2550.58c7.184 0 13.9-1.333 20.154-3.996a51.898 51.898 0 0 0 16.517-11.129 52.798 52.798 0 0 0 11.2-16.55c2.708-6.279 4.067-13.008 4.067-20.191 0-7.18-1.359-13.896-4.067-20.15a52.915 52.915 0 0 0-11.2-16.517 52.452 52.452 0 0 0-16.517-11.167c-6.254-2.683-12.97-4.029-20.154-4.029-7.133 0-13.837 1.346-20.116 4.029a52.254 52.254 0 0 0-16.55 11.167 52.306 52.306 0 0 0-11.167 16.517c-2.688 6.254-4.029 12.97-4.029 20.15 0 7.183 1.341 13.912 4.029 20.191a52.221 52.221 0 0 0 11.167 16.55 51.728 51.728 0 0 0 16.55 11.129c6.279 2.663 12.983 3.996 20.116 3.996Zm0-11.558a39.377 39.377 0 0 1-15.621-3.104 40.929 40.929 0 0 1-21.545-21.509 39.028 39.028 0 0 1-3.138-15.62c0-5.567 1.046-10.775 3.138-15.625a40.905 40.905 0 0 1 8.704-12.842 40.867 40.867 0 0 1 12.841-8.704 39.036 39.036 0 0 1 15.621-3.138c5.567 0 10.788 1.046 15.663 3.138a40.773 40.773 0 0 1 12.875 8.704 40.905 40.905 0 0 1 8.704 12.842 39.034 39.034 0 0 1 3.137 15.625 39.01 39.01 0 0 1-3.137 15.62 40.905 40.905 0 0 1-8.704 12.842 40.265 40.265 0 0 1-12.875 8.667 39.652 39.652 0 0 1-15.663 3.104Zm55.934 19.192c2.995-2.996 4.004-7.217 3.029-12.663-.975-5.446-3.509-11.7-7.596-18.762-4.092-7.063-9.321-14.521-15.696-22.367a299.577 299.577 0 0 0-21.329-23.471 298.646 298.646 0 0 0-23.471-21.329c-7.85-6.375-15.304-11.604-22.367-15.696-7.062-4.087-13.316-6.621-18.762-7.596-5.446-.975-9.667.034-12.663 3.029-2.995 2.996-3.995 7.217-2.995 12.663 1 5.446 3.533 11.687 7.6 18.729 4.062 7.038 9.295 14.492 15.691 22.363a308.617 308.617 0 0 0 21.296 23.508 308.617 308.617 0 0 0 23.508 21.296c7.871 6.396 15.325 11.625 22.363 15.691 7.037 4.067 13.283 6.6 18.729 7.6 5.442.996 9.663 0 12.663-2.995Zm-8.134-8.134c-1.333 1.379-4.066 1.175-8.204-.608-4.137-1.783-9.133-4.708-14.983-8.775a246.768 246.768 0 0 1-18.617-14.446 302.034 302.034 0 0 1-19.192-17.762 302.034 302.034 0 0 1-17.762-19.192c-5.567-6.563-10.383-12.767-14.446-18.617-4.067-5.85-6.992-10.846-8.775-14.983-1.783-4.138-1.987-6.871-.608-8.204 1.333-1.379 4.066-1.188 8.204.571 4.137 1.762 9.121 4.675 14.946 8.741 5.825 4.063 12.033 8.892 18.621 14.479a335.95 335.95 0 0 1 19.295 17.73 344.288 344.288 0 0 1 17.73 19.262 242.66 242.66 0 0 1 14.479 18.617c4.066 5.85 6.979 10.846 8.741 14.983 1.759 4.138 1.95 6.871.571 8.204Zm-6.991-91.958a14.652 14.652 0 0 0 6.85 3.925c2.612.667 5.216.667 7.808 0a15.143 15.143 0 0 0 6.887-3.925 14.681 14.681 0 0 0 3.921-6.846 15.648 15.648 0 0 0 0-7.85 14.686 14.686 0 0 0-3.921-6.846 14.57 14.57 0 0 0-6.887-3.962 16.068 16.068 0 0 0-7.808 0 14.103 14.103 0 0 0-6.85 3.962 14.115 14.115 0 0 0-3.959 6.846 16.165 16.165 0 0 0 0 7.85c.642 2.613 1.959 4.896 3.959 6.846Zm-.146-8.058-91.671 91.812 8.062 8.063 91.742-91.671-8.133-8.204Zm-102.725 110.929a14.383 14.383 0 0 0 6.812 3.996c2.592.666 5.196.666 7.813 0a14.382 14.382 0 0 0 6.846-3.996c2-1.95 3.329-4.229 3.995-6.846a15.503 15.503 0 0 0 0-7.813 14.374 14.374 0 0 0-3.995-6.812 14.382 14.382 0 0 0-6.846-3.996 15.503 15.503 0 0 0-7.813 0 14.375 14.375 0 0 0-6.812 3.996 14.375 14.375 0 0 0-3.996 6.812 15.503 15.503 0 0 0 0 7.813c.667 2.617 1.996 4.896 3.996 6.846Z"
          style="fill:#e1e4e8;fill-rule:nonzero"/>
    <path d="M5483.33 1020.7h225v225h-225zM4116.67 789.642h225v225h-225zM2520.83 564.642h225v225h-225zM695.833 790.688h225v225h-225zM5716.67 2617.45h215.692v225H5716.67zM4116.67 2160.31h222.162v219.452H4116.67zM237.5 2611.31h225v225h-225z"
          style="fill:#f8f9fa;fill-rule:nonzero"/>
    <path d="M817.26 878.782h74.001a6.723 6.723 0 0 1 6.723 6.723v101.506a6.723 6.723 0 0 1-6.723 6.723H725.406a6.723 6.723 0 0 1-6.723-6.723V885.505a6.723 6.723 0 0 1 6.723-6.723h74.221c.231-5.686.91-18.355 2.628-28.019 1.363-7.661 3.993-13.667 6.459-16.043l1.909-1.505 2.198-1.103 4.44-.79c2.613.011 5.77.928 9.071 2.84 2.928 1.695 6.223 4.29 9.442 6.653.897.659 2.115 1.422 3.144 2.04.576-.936 1.219-2.042 1.673-2.997 4.393-9.251 7.926-22.741 7.926-22.741 1.24-4.703 6.065-7.514 10.768-6.274 4.703 1.24 7.514 6.065 6.274 10.768 0 0-4.059 15.302-9.047 25.807-3.059 6.442-7.015 11.129-10.226 12.78l-2.32.915-2.321.434-3.172-.067-2.699-.595c-2.937-.9-6.342-2.904-9.746-5.364a320.436 320.436 0 0 0-5.883-4.112c-.209.829-.4 1.672-.537 2.44-1.506 8.468-2.121 19.46-2.348 24.933Zm67.277 13.446H732.129v88.06h152.408v-88.06Z"
          style="fill:#e1e4e8"/>
    <path d="M744.646 898.125h20.411v20.411h-20.411zM744.646 926.052h20.411v20.411h-20.411zM744.646 953.98h20.411v20.411h-20.411zM771.387 898.125h20.411v20.411h-20.411zM771.387 926.052h20.411v20.411h-20.411zM771.387 953.98h73.893v20.411h-73.893zM798.128 898.125h20.411v20.411h-20.411zM798.128 926.052h20.411v20.411h-20.411zM824.869 898.125h20.411v20.411h-20.411zM824.869 926.052h20.411v20.411h-20.411zM851.61 898.125h20.411v20.411H851.61zM851.61 926.052h20.411v20.411H851.61zM851.61 953.98h20.411v20.411H851.61zM1576.29 1063.35v133.352a7.234 7.234 0 0 1-7.234 7.234h-154.777a7.234 7.234 0 0 1-7.234-7.234V1063.35a7.234 7.234 0 0 1 7.234-7.234h154.777a7.234 7.234 0 0 1 7.234 7.234Zm-14.468 7.234-140.309-.001v118.885h140.309v-118.884Z"
          style="fill:#e1e4e8"/>
    <path d="M1434.87 1108.74a7.236 7.236 0 0 1-1.629-10.099 7.236 7.236 0 0 1 10.099-1.629l37.59 27.145a7.233 7.233 0 0 1 .88 10.98l-33.508 33.509a7.237 7.237 0 0 1-10.23 0 7.235 7.235 0 0 1 0-10.23l27.502-27.503-30.704-22.173ZM1491.67 1174.53a7.237 7.237 0 0 1-7.234-7.234 7.237 7.237 0 0 1 7.234-7.233h49.57a7.237 7.237 0 0 1 7.234 7.233 7.237 7.237 0 0 1-7.234 7.234h-49.57ZM2576.54 679.133h-16.226v40.234h72.551a7.905 7.905 0 0 1 7.905 7.905v21.96l5.497-3.664a7.908 7.908 0 0 1 10.962 2.192 7.91 7.91 0 0 1-2.192 10.963l-22.172 14.781-22.171-14.781c-3.63-2.421-4.613-7.333-2.193-10.963a7.909 7.909 0 0 1 10.963-2.192l5.496 3.664v-14.055h-72.551a7.905 7.905 0 0 1-7.905-7.905v-56.044a7.905 7.905 0 0 1 7.905-7.905h24.131l24.609-25.285a8.666 8.666 0 0 1 6.211-2.622h25.943l-21.695-14.464a7.908 7.908 0 0 1-2.192-10.962 7.909 7.909 0 0 1 10.962-2.193l5.496 3.665v-20.257a7.906 7.906 0 0 1 7.906-7.905h80.484a7.905 7.905 0 0 1 7.905 7.905v80.023a7.905 7.905 0 0 1-7.905 7.905h-23.245l-24.609 25.285a8.662 8.662 0 0 1-6.21 2.622h-52.84a8.666 8.666 0 0 1-6.211-2.622l-24.609-25.285Zm57.716-43.717h25.944c2.339 0 4.579.945 6.21 2.622l24.609 25.285h15.34V599.11h-64.674v12.352l5.496-3.665a7.91 7.91 0 0 1 10.963 2.193 7.909 7.909 0 0 1-2.193 10.962l-21.695 14.464Zm-41.223 35.812 17.985 18.48h45.523l17.985-18.48-17.985-18.48h-45.523l-17.985 18.48ZM4281.21 863.142c-4.678 0-8.476-3.797-8.476-8.475 0-4.678 3.798-8.475 8.476-8.475h25.864a8.475 8.475 0 0 1 8.476 8.475v94.622a8.476 8.476 0 0 1-8.459 8.476l-164.147.319a8.472 8.472 0 0 1-8.492-8.475v-94.622a8.475 8.475 0 0 1 8.371-8.475l25.865-.32c4.677-.057 8.521 3.693 8.579 8.37.058 4.678-3.693 8.522-8.37 8.58l-17.494.216v77.759l147.196-.287v-77.688h-17.389Z"
          style="fill:#e1e4e8"/>
    <path d="M4216.52 967.712v-18.103c0-4.678 3.797-8.476 8.475-8.476 4.678 0 8.475 3.798 8.475 8.476v18.103l5.893-3.929c3.892-2.595 9.159-1.541 11.753 2.351 2.595 3.892 1.542 9.158-2.35 11.753l-23.771 15.847-23.771-15.847c-3.892-2.595-4.945-7.861-2.35-11.753 2.594-3.892 7.861-4.946 11.753-2.351l5.893 3.929ZM4229.54 811.868l56.208 35.641a8.475 8.475 0 0 1 0 14.316l-56.208 35.642a8.476 8.476 0 0 1-9.078 0l-56.208-35.642a8.475 8.475 0 0 1 0-14.316l56.208-35.641a8.476 8.476 0 0 1 9.078 0Zm-4.539 17.193-40.382 25.606 40.382 25.606 40.382-25.606-40.382-25.606ZM5598.32 1146.42v36.161h74.243v-92.177h-52.333c-4.986 0-9.035-4.049-9.035-9.035s4.049-9.034 9.035-9.034h61.367a9.034 9.034 0 0 1 9.034 9.034v110.246a9.034 9.034 0 0 1-9.034 9.035h-92.311a9.035 9.035 0 0 1-9.035-9.035v-45.195l-6.281 4.188c-4.149 2.765-9.763 1.643-12.529-2.506-2.765-4.149-1.643-9.763 2.506-12.529l25.339-16.892 25.338 16.892c4.149 2.766 5.272 8.38 2.506 12.529-2.766 4.149-8.38 5.271-12.528 2.506l-6.282-4.188ZM5529.16 1197.05l.21-87.41a8.245 8.245 0 0 1 8.261-8.221 8.245 8.245 0 0 1 8.221 8.261l-.21 87.41 5.739-3.807c3.79-2.513 8.909-1.477 11.422 2.313a8.245 8.245 0 0 1-2.313 11.423l-23.15 15.353-23.076-15.464c-3.778-2.532-4.79-7.655-2.258-11.433 2.532-3.779 7.655-4.791 11.433-2.259l5.721 3.834Z"
          style="fill:#e1e4e8"/>
    <path d="m5503.59 1075.06 27.542-28.299a9.037 9.037 0 0 1 6.475-2.733h55.084c2.438 0 4.773.986 6.474 2.733l27.542 28.299a9.033 9.033 0 0 1 0 12.602l-27.542 28.299a9.034 9.034 0 0 1-6.474 2.734h-55.084a9.034 9.034 0 0 1-6.475-2.734l-27.542-28.299a9.035 9.035 0 0 1 0-12.602Zm19.081 6.301 18.75 19.265h47.456l18.749-19.265-18.749-19.264h-47.456l-18.75 19.264ZM5011.56 1349.12v58.733a8.022 8.022 0 0 1-8.022 8.022h-182.066a8.022 8.022 0 0 1-8.022-8.022v-58.733a8.022 8.022 0 0 1 8.022-8.023h182.066a8.022 8.022 0 0 1 8.022 8.023Zm-16.044 8.022h-166.022v42.688h166.022v-42.688Z"
          style="fill:#e1e4e8"/>
    <path d="M4872.23 1349.12a8.027 8.027 0 0 1 8.023-8.023 8.027 8.027 0 0 1 8.022 8.023v58.733a8.026 8.026 0 0 1-8.022 8.022 8.027 8.027 0 0 1-8.023-8.022v-58.733ZM4936.73 1349.12a8.027 8.027 0 0 1 8.022-8.023 8.027 8.027 0 0 1 8.023 8.023v58.733a8.027 8.027 0 0 1-8.023 8.022 8.026 8.026 0 0 1-8.022-8.022v-58.733Z"
          style="fill:#e1e4e8"/>
    <path d="M4850.09 1328.64c7.304 0 11.897-5.349 11.897-14.129 0-8.854-4.648-13.982-11.897-13.982-7.249 0-11.916 5.146-11.916 14 0 8.799 4.611 14.111 11.916 14.111Zm0-6.013c-2.398 0-3.948-2.527-3.948-8.098 0-5.589 1.55-7.987 3.948-7.987 2.398 0 3.929 2.398 3.929 7.987 0 5.571-1.531 8.098-3.929 8.098ZM4914.45 1328.64c2.342 0 3.91-1.512 3.91-3.855v-19.312c0-2.675-1.66-4.372-4.482-4.372-1.513 0-2.859.148-4.409 1.18l-4.832 3.228c-1.033.701-1.476 1.587-1.476 2.675 0 1.55 1.125 2.638 2.582 2.638.738 0 1.162-.148 1.826-.609l2.823-1.955h.147v16.527c0 2.343 1.568 3.855 3.911 3.855ZM4968.53 1327.9h14.794c1.955 0 3.062-1.199 3.062-2.951 0-1.789-1.107-2.951-3.062-2.951h-8.448v-.148l4.851-4.187c4.132-3.578 5.976-5.441 5.976-9.02 0-4.833-4.132-8.097-10.606-8.097-4.648 0-8.393 1.973-9.795 5.146a4.297 4.297 0 0 0-.35 1.734c0 1.881 1.217 3.043 3.209 3.043 1.495 0 2.435-.553 3.468-2.066.996-1.438 1.955-2.084 3.357-2.084 1.9 0 3.191 1.162 3.191 2.841 0 1.586-.848 2.748-3.836 5.312l-7.323 6.272c-1.476 1.235-2.14 2.342-2.14 3.781 0 1.955 1.107 3.375 3.652 3.375Z"
          style="fill:#e1e4e8;fill-rule:nonzero"/>
    <path d="M5694.03 1738.54v58.224a7.953 7.953 0 0 1-7.953 7.953h-180.489a7.953 7.953 0 0 1-7.953-7.953v-58.224a7.953 7.953 0 0 1 7.953-7.953h180.489a7.953 7.953 0 0 1 7.953 7.953Zm-15.906 7.953h-164.583v42.318h164.583v-42.318Z"
          style="fill:#e1e4e8"/>
    <path d="M5523.97 1738.54a7.957 7.957 0 0 1 7.953-7.953 7.957 7.957 0 0 1 7.953 7.953v58.224a7.957 7.957 0 0 1-7.953 7.953 7.957 7.957 0 0 1-7.953-7.953v-58.224ZM5651.79 1738.54a7.957 7.957 0 0 1 7.953-7.953 7.957 7.957 0 0 1 7.953 7.953v58.224a7.957 7.957 0 0 1-7.953 7.953 7.957 7.957 0 0 1-7.953-7.953v-58.224ZM5603.18 1821.39a7.955 7.955 0 0 1-7.366 11.147 7.957 7.957 0 0 1-7.29-10.94l-6.034 4.066a7.956 7.956 0 0 1-11.039-2.151 7.956 7.956 0 0 1 2.15-11.039l22.231-14.982 22.379 14.759a7.956 7.956 0 0 1 2.261 11.018 7.957 7.957 0 0 1-11.017 2.261l-6.275-4.139Zm-7.289-4.758h.074l-.037-.024-.037.024Zm-78.387 84.131a7.955 7.955 0 0 1-8.475-7.393 7.957 7.957 0 0 1 7.393-8.476 7.958 7.958 0 0 1 8.476 7.394 7.957 7.957 0 0 1-7.394 8.475Zm17.841-1.605a7.956 7.956 0 0 1-8.818-6.981 7.957 7.957 0 0 1 6.981-8.819 7.956 7.956 0 0 1 8.818 6.981 7.957 7.957 0 0 1-6.981 8.819Zm18.012-2.818a7.957 7.957 0 0 1-9.399-6.177 7.957 7.957 0 0 1 6.177-9.399 7.956 7.956 0 0 1 9.399 6.177 7.957 7.957 0 0 1-6.177 9.399Zm18.214-5.341a7.956 7.956 0 0 1-10.375-4.342c-1.665-4.062.28-8.711 4.342-10.375a7.956 7.956 0 0 1 10.375 4.342 7.957 7.957 0 0 1-4.342 10.375Zm17.315-11.101a7.957 7.957 0 0 1-11.247.027 7.957 7.957 0 0 1-.028-11.247 7.957 7.957 0 0 1 11.247-.028 7.957 7.957 0 0 1 .028 11.248Zm10.741-18.146a7.958 7.958 0 0 1-10.005 5.139 7.957 7.957 0 0 1-5.138-10.005c1.342-4.179 5.825-6.481 10.004-5.139a7.958 7.958 0 0 1 5.139 10.005Zm3.48-18.968a7.957 7.957 0 0 1-8.606 7.241 7.957 7.957 0 0 1-7.242-8.605 7.958 7.958 0 0 1 8.606-7.242c4.373.376 7.618 4.233 7.242 8.606ZM4300.81 2225.11v124.562a9.358 9.358 0 0 1-9.358 9.358H4166.89c-5.169 0-9.359-4.19-9.359-9.358V2225.11a9.359 9.359 0 0 1 9.359-9.359h124.562c5.168 0 9.358 4.19 9.358 9.359Zm-18.717 9.359h-105.845v105.844h105.845v-105.844Z"
          style="fill:#e1e4e8"/>
    <path d="M4298.58 2231.17c-3.346 3.935-9.258 4.412-13.192 1.066-3.935-3.346-4.413-9.257-1.067-13.192l29.823-35.067c3.346-3.935 9.257-4.412 13.192-1.066 3.934 3.346 4.412 9.257 1.066 13.192l-29.822 35.067ZM4174.02 2219.04c3.346 3.935 2.868 9.846-1.066 13.192-3.935 3.346-9.846 2.869-13.192-1.066l-29.823-35.067c-3.346-3.935-2.868-9.846 1.067-13.192 3.934-3.346 9.846-2.869 13.192 1.066l29.822 35.067Z"
          style="fill:#e1e4e8"/>
    <path d="M4207.38 2321.23c5.214 0 8.116-2.675 9.929-9.249l1.134-4.126h21.308l1.133 4.443c1.632 6.348 4.579 8.932 10.246 8.932 5.577 0 9.612-3.899 9.612-9.34 0-2.085-.363-3.899-1.27-6.392l-14.779-40.441c-2.947-8.07-7.662-11.515-15.868-11.515-7.662 0-12.423 3.581-15.234 11.515l-14.643 40.441c-.862 2.312-1.36 4.76-1.36 6.438 0 5.803 3.672 9.294 9.792 9.294Zm14.689-27.701 6.484-23.757h.362l6.801 23.757h-13.647Z"
          style="fill:#e1e4e8;fill-rule:nonzero"/>
    <path d="M1262.5 2006.1c5.059 0 9.167 4.108 9.167 9.167s-4.108 9.167-9.167 9.167h-64.167c-5.028 0-9.166 4.137-9.166 9.166v36.667c0 5.029 4.138 9.166 9.166 9.166h27.5c5.06 0 9.167 4.108 9.167 9.167s-4.107 9.167-9.167 9.167h-27.5c-15.086 0-27.5-12.414-27.5-27.5V2033.6c0-15.086 12.414-27.5 27.5-27.5h64.167ZM1262.5 2079.44c-5.059 0-9.167-4.107-9.167-9.166s4.108-9.167 9.167-9.167h64.167c5.028 0 9.166-4.138 9.166-9.167v-36.666c0-5.029-4.138-9.167-9.166-9.167h-27.5c-5.06 0-9.167-4.107-9.167-9.166 0-5.06 4.107-9.167 9.167-9.167h27.5c15.086 0 27.5 12.414 27.5 27.5v36.666c0 15.087-12.414 27.5-27.5 27.5H1262.5Z"
          style="fill:#e1e4e8"/>
    <path d="M1235 2015.27c0 5.059-4.107 9.167-9.167 9.167-5.059 0-9.166-4.108-9.166-9.167v-36.667c0-15.086 12.414-27.5 27.5-27.5h36.666c15.086 0 27.5 12.414 27.5 27.5v45.834c0 15.086-12.414 27.499-27.5 27.499h-36.666c-5.029 0-9.167 4.138-9.167 9.167v45.833c0 5.029 4.138 9.167 9.167 9.167h36.666c5.029 0 9.167-4.138 9.167-9.167v-36.666c0-5.059 4.107-9.167 9.167-9.167 5.059 0 9.166 4.108 9.166 9.167v36.666c0 15.087-12.414 27.5-27.5 27.5h-36.666c-15.086 0-27.5-12.413-27.5-27.5v-45.833c0-15.086 12.414-27.5 27.5-27.5h36.666c5.029 0 9.167-4.138 9.167-9.166v-45.834c0-5.029-4.138-9.166-9.167-9.166h-36.666c-5.029 0-9.167 4.137-9.167 9.166v36.667Z"
          style="fill:#e1e4e8"/>
    <circle cx="1250.94" cy="1990.25" r="6.776" style="fill:#e1e4e8"/>
    <circle cx="1269.28" cy="2100.25" r="6.776" style="fill:#e1e4e8"/>
    <defs><radialGradient id="a" cx="0" cy="0" r="1" gradientTransform="scale(3571.95 2464.72) rotate(-90 1.025 .13)" gradientUnits="userSpaceOnUse"><stop offset="0" style="stop-color:#ced4da;stop-opacity:.6"/><stop
            offset="1" style="stop-color:#ced4da;stop-opacity:0"/></radialGradient></defs></svg>