<?xml version="1.0" encoding="UTF-8" standalone="no"?><!DOCTYPE svg PUBLIC "-//W3C//DTD SVG 1.1//EN" "http://www.w3.org/Graphics/SVG/1.1/DTD/svg11.dtd"><svg width="100%" height="100%" viewBox="0 0 4267 3200" version="1.1" xmlns="http://www.w3.org/2000/svg" xmlns:xlink="http://www.w3.org/1999/xlink" xml:space="preserve" xmlns:serif="http://www.serif.com/" style="fill-rule:evenodd;clip-rule:evenodd;stroke-linecap:round;stroke-linejoin:round;stroke-miterlimit:1.5;"><path d="M4140.64,232.715l0,2737.59c0,53.223 -43.21,96.433 -96.432,96.433l-3801.53,-0c-53.223,-0 -96.433,-43.21 -96.433,-96.433l0,-2737.59c0,-53.223 43.21,-96.433 96.433,-96.433l3801.53,0c53.222,0 96.432,43.21 96.432,96.433Z" style="fill:#17171a;stroke:#17171a;stroke-width:4.17px;"/><path d="M1018.16,3066.74l-775.481,-0c-53.223,-0 -96.433,-43.21 -96.433,-96.433l0,-2737.59c0,-53.223 43.21,-96.433 96.433,-96.433l775.481,0l-0,2930.46Z" style="fill:#202224;stroke:#17171a;stroke-width:4.17px;"/><path d="M146.249,333.924l0,-101.209c0,-53.223 43.21,-96.433 96.433,-96.433l3801.53,0c53.222,0 96.432,43.21 96.432,96.433l0,101.209l-3994.39,0Z" style="fill:#2e3032;"/><circle cx="243.383" cy="235.103" r="48.039" style="fill:#fd4646;"/><circle cx="374.409" cy="235.103" r="48.039" style="fill:#feb024;"/><circle cx="505.436" cy="235.103" r="48.039" style="fill:#28c131;"/><path d="M3656.53,235.103l-87.835,48.039l-0,-96.077l87.835,48.038Z" style="fill:none;stroke:#50a052;stroke-width:20.83px;"/><g><ellipse cx="3834.17" cy="245.865" rx="32.508" ry="37.277" style="fill:none;stroke:#50a052;stroke-width:20.83px;"/><ellipse cx="3834.17" cy="198.609" rx="16.226" ry="9.98" style="fill:none;stroke:#50a052;stroke-width:20.83px;"/><path d="M3804.55,223.21l-29.554,-14.621" style="fill:none;stroke:#50a052;stroke-width:20.83px;"/><path d="M3861.03,223.21l29.554,-14.621" style="fill:none;stroke:#50a052;stroke-width:20.83px;"/><path d="M3799.55,247.335l-32.762,0.522" style="fill:none;stroke:#50a052;stroke-width:20.83px;"/><path d="M3870.19,247.335l32.762,0.522" style="fill:none;stroke:#50a052;stroke-width:20.83px;"/><path d="M3807.12,271.772l-23.955,14.876" style="fill:none;stroke:#50a052;stroke-width:20.83px;"/><path d="M3858.45,271.772l23.955,14.876" style="fill:none;stroke:#50a052;stroke-width:20.83px;"/></g><rect x="243.383" y="447.881" width="681.431" height="90.206" style="fill:#888;"/><rect x="374.409" y="614.548" width="550.404" height="90.206" style="fill:#888;"/><rect x="1340.91" y="447.881" width="594.896" height="90.206" style="fill:#888;"/><rect x="1340.91" y="1074.77" width="594.896" height="90.206" style="fill:#4795f2;"/><rect x="1340.91" y="1940.71" width="871.913" height="90.206" style="fill:#4795f2;"/><rect x="1158.62" y="664.544" width="1149.8" height="90.206" style="fill:#888;"/><rect x="1158.62" y="813.817" width="1866.25" height="90.206" style="fill:#888;"/><rect x="1340.91" y="1228.21" width="1683.96" height="90.206" style="fill:#888;"/><rect x="1340.91" y="2094.15" width="1331.25" height="90.206" style="fill:#888;"/><rect x="1340.91" y="1386.55" width="1485.82" height="90.206" style="fill:#888;"/><rect x="1524.1" y="2252.48" width="170.841" height="90.206" style="fill:#888;"/><rect x="1929.3" y="2252.48" width="493.593" height="90.206" style="fill:#888;"/><rect x="1980.51" y="2410.82" width="493.593" height="90.206" style="fill:#57995e;"/><rect x="1340.91" y="1544.88" width="1866.25" height="90.206" style="fill:#888;"/><rect x="1524.1" y="2410.82" width="411.715" height="90.206" style="fill:#7572b9;"/><rect x="1668.1" y="1703.21" width="754.792" height="90.206" style="fill:#888;"/><rect x="1668.1" y="2722.59" width="754.792" height="90.206" style="fill:#888;"/><rect x="1524.1" y="2569.15" width="1900" height="90.206" style="fill:#888;"/><rect x="1158.62" y="447.881" width="132.003" height="90.206" style="fill:#b77456;"/><rect x="1158.62" y="1074.77" width="132.003" height="90.206" style="fill:#b77456;"/><rect x="1158.62" y="1940.71" width="132.003" height="90.206" style="fill:#b77456;"/><rect x="1340.91" y="2252.48" width="132.003" height="90.206" style="fill:#b77456;"/><rect x="1340.91" y="1703.21" width="281.813" height="90.206" style="fill:#b77456;"/><rect x="1340.91" y="2722.59" width="281.813" height="90.206" style="fill:#b77456;"/><rect x="1746.11" y="2252.48" width="132.003" height="90.206" style="fill:#b77456;"/><rect x="374.409" y="781.214" width="550.404" height="90.206" style="fill:#888;"/><rect x="374.409" y="947.881" width="550.404" height="90.206" style="fill:#888;"/></svg>