<svg xmlns="http://www.w3.org/2000/svg" width="128" height="30" fill="none"><path fill="#FF3D00" d="M73.281 12.106c0-.663.715-1.042 2.221-1.042 3.35 0 6.174 2.462 6.174 2.462V8.981a10.2 10.2 0 0 0-5.722-1.723c-4.649 0-6.286 2.822-6.286 4.696 0 5.227 8.695 3.94 8.695 5.985 0 .89-1.054 1.098-2.164 1.098-3.859 0-6.268-2.746-6.268-2.746v5.17c.602.55 3.35 1.554 5.948 1.554 4.122 0 6.569-2.349 6.569-4.356 0-5.55-9.167-4.508-9.167-6.553Zm-20.309 2.235c0-1.458-.32-7.083-6.644-7.083-3.049 0-5.213 1.269-5.835 1.723v4.545s2.184-2.462 5.176-2.462c2.993 0 2.937 2.727 2.937 2.727-.828-.151-2.052-.265-3.313-.265-3.99 0-6.136 2.481-6.136 5.152 0 3.049 2.767 4.337 5.157 4.337 2.221 0 3.595-1.175 4.33-2.898h.15l-.15 2.178v.397h4.385l-.057-8.351Zm-7.397 5.265c-1.355 0-2.296-.682-2.296-1.743 0-2.007 3.106-2.537 5.063-2.026-.15 2.803-1.449 3.769-2.767 3.769Zm66.705-5.265c0-1.458-.32-7.083-6.644-7.083-3.049 0-5.213 1.269-5.835 1.723v4.545s2.184-2.462 5.176-2.462c2.993 0 2.937 2.727 2.937 2.727-.829-.151-1.995-.265-3.313-.265-3.99 0-6.136 2.481-6.136 5.152 0 3.049 2.767 4.337 5.157 4.337 2.221 0 3.595-1.175 4.329-2.898h.151l-.151 2.178v.397h4.386l-.057-8.351Zm-7.397 5.265c-1.355 0-2.296-.682-2.296-1.743 0-2.007 3.106-2.537 5.063-2.026-.15 2.803-1.449 3.769-2.767 3.769ZM59.315 5.08h-3.143c0 1.212-.564 2.67-2.654 2.67v2.727h1.299v7.898c0 2.784 1.223 4.64 3.877 4.64 1.638 0 2.899-.53 3.445-1.232v-3.995s-.621 1.041-1.525 1.041c-.96 0-1.299-.739-1.299-1.875v-6.477h2.636v-3.22h-2.636V5.08Zm-29.813 7.026c0-.663.715-1.042 2.22-1.042 3.35 0 6.174 2.462 6.174 2.462V8.981a10.2 10.2 0 0 0-5.722-1.723c-4.649 0-6.286 2.822-6.286 4.696 0 5.227 8.695 3.94 8.695 5.985 0 .89-1.054 1.098-2.164 1.098-3.859 0-6.268-2.746-6.268-2.746v5.17c.602.55 3.35 1.554 5.948 1.554 4.122 0 6.569-2.349 6.569-4.356 0-5.55-9.166-4.508-9.166-6.553ZM66.11 8.981c1.506 0 2.673-1.117 2.673-2.5 0-1.382-1.167-2.5-2.673-2.5s-2.729 1.137-2.729 2.5c0 1.364 1.186 2.5 2.73 2.5Zm2.315 13.711V9.72s-.903.435-2.315.435-2.334-.435-2.334-.435v12.972h4.65ZM122.068 7.58h.056c-1.543 6.439-2.447 9.772-2.616 10.643-.057-.871-1.299-4.204-2.823-10.643h-4.875l3.802 11.344c.301.814.979 1.818 2.56 1.818 1.279 0 2.032-.682 2.446-1.06h.076c-.377 1.003-1.337 2.405-3.539 2.405-1.543 0-3.181-.74-3.181-.74v4.035s1.148.663 3.181.663c1.468 0 3.727-.55 5.534-5.208.132-.228 4.31-13.257 4.31-13.257h-4.931Zm-29.776-.322c-1.958 0-3.35.87-4.273 2.935l-.113-.038.207-2.575h-4.611v18.143h4.442V20.57l.131-.038c.79 1.534 2.259 2.482 4.216 2.482 4.066 0 5.967-4.375 5.967-7.917 0-3.825-1.901-7.84-5.966-7.84Zm-1.45 11.25c-1.637 0-3.313-.986-3.313-3.448 0-2.462 1.676-3.465 3.313-3.465 1.638 0 3.463 1.003 3.463 3.465 0 2.462-1.806 3.447-3.463 3.447Z"/><path fill="#FF3D00" fill-rule="evenodd" d="M3.765 5.128h6.504l8.841 8.327c.513.483.814 1.162.814 1.868a2.606 2.606 0 0 1-.78 1.868l-8.854 8.423H3.744a.27.27 0 0 1-.184-.469l10.33-9.563a.323.323 0 0 0 .096-.232.329.329 0 0 0-.102-.23L3.58 5.596c-.184-.163-.061-.468.185-.468ZM.793 17.184A2.635 2.635 0 0 1 0 15.303c0-.707.3-1.386.813-1.868l4.749-4.497 3.566 3.315-3.095 2.84a.322.322 0 0 0-.096.23c0 .089.041.17.103.231l3.13 2.894-3.567 3.315-4.81-4.579Zm11.082 8.444h4.352c.246 0 .37-.306.185-.469l-2.043-1.895-2.494 2.364Zm4.503-20.032-2.023 1.861-2.487-2.33h4.325a.27.27 0 0 1 .185.47Z" clip-rule="evenodd"/></svg>