<?xml version="1.0" encoding="UTF-8" standalone="no"?><!DOCTYPE svg PUBLIC "-//W3C//DTD SVG 1.1//EN" "http://www.w3.org/Graphics/SVG/1.1/DTD/svg11.dtd"><svg width="100%" height="100%" viewBox="0 0 2812 2812" version="1.1" xmlns="http://www.w3.org/2000/svg" xmlns:xlink="http://www.w3.org/1999/xlink" xml:space="preserve" xmlns:serif="http://www.serif.com/" style="fill-rule:evenodd;clip-rule:evenodd;stroke-linejoin:round;stroke-miterlimit:2;"><rect id="Tavola-da-disegno1" serif:id="Tavola da disegno1" x="0" y="0" width="2811.72" height="2811.2" style="fill:none;"/><path d="M1094.37,986.605c10.667,-10.917 22.75,-20.292 35.333,-28.917c10.75,23.833 22.459,47.458 38.167,68.458c28.708,37.875 65.917,68.459 106.083,93.459c47.25,31.666 100.959,51.375 153.584,71.875c68.083,23.458 136.875,44.916 206.041,65c55.75,12.25 110.75,28.708 167.75,34.333c70.834,9.75 146.125,16.917 214.292,-9.667c20,-7.125 37.083,-20.291 57.042,-27.5c-6.542,11.917 -18.084,19.667 -28.917,27.292c-36.458,25.208 -81.583,36.167 -125.542,34.875c-53.208,1.042 -106.208,-4.375 -158.708,-12.292c-34.792,-4.75 -68.375,-15.583 -103.167,-20.375c-29.083,-7.125 -59.041,-10.875 -87.458,-20.541c-29.25,-9.5 -59.958,-13.292 -89.375,-22.209c-72.458,-21 -145.458,-42.166 -213.375,-75.5c-41.375,-21.625 -82.542,-46.333 -112.833,-82.541c-26.417,-27.209 -45.167,-60.625 -58.917,-95.75Z" style="fill:#0162ac;fill-rule:nonzero;"/><circle cx="1405.86" cy="1407.71" r="1243.02" style="fill:#d9f9ff;"/><path d="M1139.82,2568.36c-117.125,-41.334 -230.75,-95.084 -332.75,-166.292c64.875,-2.208 128.792,-21.583 186,-51.833c67.709,-38.667 124.417,-99.417 151.084,-173.375c33.708,-87.042 31.625,-185.25 0.833,-272.75c-26.25,-75.959 -68.125,-145.5 -114.125,-211c-47.625,-62 -92.875,-126.042 -131.333,-194.209c-33.834,-62.875 -60.792,-129.791 -74.709,-200c-5.375,-24.458 -10.083,-49.208 -9.791,-74.375c-1.459,-28.333 -0.75,-56.666 0.958,-84.958c5.625,-57.625 22,-113.833 45.917,-166.458c32.75,-69.542 77,-134.625 136,-184.542c49.375,-42.333 106.166,-77.333 168.75,-96.167c30.666,-10.041 61.833,-19.291 93.958,-23.333c86,-13.125 172.917,1.667 256.958,20.125c38.667,7.708 77.417,14.958 115.5,25.292c66.959,13.833 131.459,47.041 175.542,100.125c22.208,25.75 47.125,49.708 76.667,66.875c49.958,28.791 104.833,47.208 157.75,69.583c50.041,21.583 93.041,61.292 114,112.042c11.458,23.958 10.125,51.083 9.625,76.916c-1.292,12.75 -7.292,24.375 -14.125,35c-16.959,-12.541 -38.334,-19.916 -59.5,-16.625c-30.834,2.042 -56.167,21.125 -83.125,34.084c-39.167,21.25 -84.542,28.5 -128.709,27.375c-58.791,1.125 -116.166,-13.459 -173.083,-26.25c-30.583,-6.875 -60.458,-16.167 -90.375,-25.334c-44.875,-15.208 -90.125,-31.375 -129.75,-57.875c-19.75,-13.541 -37.5,-29.791 -54.083,-47.041c-30.917,10.666 -62.959,17.541 -95.5,20.875c29.666,36.458 70.625,62.083 111.333,84.75c43.958,22.375 88.375,44.291 135.458,59.333c35.75,11.333 71.25,23.75 108.042,31.292c77.833,18.333 157.875,30.75 238.042,26.458c26.833,-2.5 53.791,-7.542 78.5,-18.667c17.583,-7.666 33.458,-18.583 50.333,-27.666c5.708,4 11.375,8 17.083,12.041l-4.541,1.875c-19.959,7.209 -37.042,20.375 -57.042,27.5c-68.167,26.584 -143.458,19.417 -214.292,9.667c-57,-5.625 -112,-22.083 -167.75,-34.333c-69.166,-20.084 -137.958,-41.542 -206.041,-65c-52.625,-20.5 -106.334,-40.209 -153.584,-71.875c-40.166,-25 -77.375,-55.584 -106.083,-93.459c-15.708,-21 -27.417,-44.625 -38.167,-68.458c-12.583,8.625 -24.666,18 -35.333,28.917c-76.667,72.041 -118.042,176.5 -121.083,280.791c-0.75,35 -0.834,70.334 6.25,104.792c13.583,95.5 57.166,183.917 110.458,263.25c14.125,14.625 23.458,33.125 36.708,48.583c32.042,38.75 65.334,76.459 96.834,115.667c1.875,2.625 3.333,5.5 4.375,8.583c55.125,67.459 105.25,140.167 138.291,221.209c30.417,68.458 51.667,141.583 55.917,216.625c5.75,56.625 -5.208,113.291 -21.458,167.333c-22.167,70.458 -65.084,133.708 -120.334,182.458c-4.541,3.5 -9.583,9.459 -16.041,6.5c-41.542,-11.25 -83.334,-21.5 -124.459,-34.041Zm782.709,-1518.12c-18.084,12.25 -26.542,33.666 -24.459,55.166c36.042,-14.291 77.125,-15.875 113.084,-0.458c14.583,-47.125 -53.084,-85.917 -88.625,-54.708Zm-464.667,-223.084c-31.333,19.5 -55,49.625 -67.958,84.125c18.25,-2.375 36.541,-4.583 55,-4.875c-6.084,26.167 -5.167,55.667 9.916,78.792c18.792,31.083 52,54.042 88.459,57.75c35.291,2.167 71.333,-8.875 98.333,-32c39.125,6.875 78.875,2.458 118.292,5.125c-29.042,-14.792 -56.125,-33.875 -79.667,-56.375c2.875,-54.833 -24.833,-111.792 -73.458,-138.792c-45.834,-25.75 -104.917,-21.333 -148.917,6.25Z" style="fill:#0cb3fc;"/><path d="M1922.53,1050.23c35.541,-31.209 103.208,7.583 88.625,54.708c-35.959,-15.417 -77.042,-13.833 -113.084,0.458c-2.083,-21.5 6.375,-42.916 24.459,-55.166Z" style="fill:#011d4a;fill-rule:nonzero;"/><path d="M1457.87,827.146c44,-27.583 103.083,-32 148.917,-6.25c48.625,27 76.333,83.959 73.458,138.792c23.542,22.5 50.625,41.583 79.667,56.375c-39.417,-2.667 -79.167,1.75 -118.292,-5.125c-27,23.125 -63.042,34.167 -98.333,32c-36.459,-3.708 -69.667,-26.667 -88.459,-57.75c-15.083,-23.125 -16,-52.625 -9.916,-78.792c-18.459,0.292 -36.75,2.5 -55,4.875c12.958,-34.5 36.625,-64.625 67.958,-84.125m64.958,44c-28.625,9.125 -41.708,43.292 -35.25,70.959c6.625,37.25 51.584,62.583 86.459,46.958c6.583,-3.75 -1.375,-8.083 -4.75,-9.875c-20.75,-12.125 -31.834,-39.5 -22.125,-62.125c4.166,-11.5 16.125,-16.708 26.958,-20.083c-2.333,-23.334 -31.542,-33.5 -51.292,-25.834Z" style="fill:#011d4a;fill-rule:nonzero;"/><path d="M1197.74,627.938c56.917,-15.333 115.5,-27.292 174.792,-25.917c45,-0.125 89.291,8.834 133.333,17.125c54.208,11.292 108.375,22.875 162.375,35.125c62.5,15.334 125.208,40.75 170.5,88.084c23.25,25.5 42.875,54.375 69,77.208c27.542,24.083 59.417,43.125 93.583,56.208c45.667,19.709 94.625,37.667 129.292,75c26.375,29.834 43.5,68.334 46.25,108.209c3.625,27.5 -3.75,54.583 -10.208,81.041c0.5,-25.833 1.833,-52.958 -9.625,-76.916c-20.959,-50.75 -63.959,-90.459 -114,-112.042c-52.917,-22.375 -107.792,-40.792 -157.75,-69.583c-29.542,-17.167 -54.459,-41.125 -76.667,-66.875c-44.083,-53.084 -108.583,-86.292 -175.542,-100.125c-38.083,-10.334 -76.833,-17.584 -115.5,-25.292c-84.041,-18.458 -170.958,-33.25 -256.958,-20.125c-32.125,4.042 -63.292,13.292 -93.958,23.333c-62.584,18.834 -119.375,53.834 -168.75,96.167c-59,49.917 -103.25,115 -136,184.542c-23.917,52.625 -40.292,108.833 -45.917,166.458c-1.794,9.803 -8.068,31.898 -11.958,36.583c-4.68,5.637 -12.042,-3.916 -13.5,-10.375c-6.375,-18.083 -16.542,-61.666 -16.625,-63.875c21.333,-131.833 87.833,-256.791 188.166,-345.416c66.084,-61.959 148.667,-104.625 235.667,-128.542Z" style="fill:#fff;fill-rule:nonzero;"/><path d="M1522.82,871.146c19.75,-7.666 48.959,2.5 51.292,25.834c-10.833,3.375 -22.792,8.583 -26.958,20.083c-9.709,22.625 1.375,50 22.125,62.125c3.375,1.792 11.333,6.125 4.75,9.875c-34.875,15.625 -79.834,-9.708 -86.459,-46.958c-6.458,-27.667 6.625,-61.834 35.25,-70.959Z" style="fill:#fff;fill-rule:nonzero;"/><path d="M1183.2,1380.19c-3.083,-44.083 -0.041,-88.208 5.125,-131.958c60.917,29.916 125.625,51.666 191.292,68.416c-4.167,14.334 -7,29.542 -15.125,42.292c-38.125,28.208 -87.958,32.167 -133.792,28.833c-15.958,-1.375 -32.208,-2.625 -47.5,-7.583Zm12.17,65.384c65.025,5.653 119.337,7.677 180.08,-24.676c1.042,36 13.167,70.542 27.375,103.25c-42.916,37.959 -104.208,41.542 -158.541,35.917c-9.709,-24.083 -21.584,-47.208 -30.667,-71.542c-5.25,-12.541 -14.072,-32.924 -18.247,-42.949Zm203.872,153.324c12.458,-5.166 22.667,-14.083 33,-22.5c23.833,40.834 56.292,75.5 86.083,111.917c13.292,16.875 28.709,31.958 44.625,46.375c-39,40.708 -100.375,52.25 -154.541,46.417c-24.584,-35.75 -54.667,-67.25 -81.209,-101.5c-14.666,-19.667 -33.083,-35.959 -48.875,-54.625c41.459,-0.875 82.917,-9.25 120.917,-26.084Zm57.792,243.709c53.041,-3.042 107.583,-22.75 144.416,-62.209c12,17.042 24.334,33.875 37.542,50.042c31.125,42.458 56,89.125 77.167,137.25c-12.584,25.917 -33.75,47.708 -61.042,57.792c-34.042,12.708 -71.583,15.708 -107.5,11.125c-19.167,-56.125 -43.208,-110.834 -75.458,-160.75c-6.125,-10.5 -15.584,-20.292 -15.125,-33.25Zm244.083,224.166c14.292,-10.75 26.083,-24.416 38.833,-36.875c6.917,25.542 13.375,51.209 19.917,76.875c8.458,42.375 11.5,85.875 8.917,129.084c-1.625,11 -2.084,22.75 -7.917,32.541c-15,22.459 -37.25,40.125 -63.125,48.334c-40.917,12.916 -85.375,9.708 -126.167,-2.167c11.875,-69.75 9.209,-141.167 -3.125,-210.625c7.167,-1.083 14.375,-2.167 21.625,-3.083c38.875,-2.417 78.334,-12.125 111.042,-34.084Zm13.708,306.5c16.334,-6 29.834,-17.166 43.959,-27c-19.459,78.25 -52.875,155.667 -109.959,214c-8.25,8.292 -16.583,16.542 -24.791,24.917c-10.834,12.458 -29.209,9.833 -43.792,14c-76.208,15.875 -154.667,18.167 -232.125,12.458c2.958,-1.541 5.958,-3.041 8.958,-4.458c19.834,5.542 40.959,5.875 61.375,4.333c16.125,-12.291 28.75,-28.541 41.625,-44.083c44.5,-57.292 83.875,-121.625 98.375,-193.542c50.25,16.459 106.542,18.5 156.375,-0.625Z" style="fill:#fff;"/><path d="M1096.7,1934.27c-15.208,-48.208 -33.5,-95.708 -59,-139.541c-51.166,-86.375 -115.375,-164.209 -167.625,-249.875c-21.416,-37.042 -39.125,-76.084 -56.083,-115.292c-22.208,-57.292 -36.167,-117.708 -43.292,-178.667c-2.25,-50.291 -4.208,-101 3.125,-151l0.084,2c-0,0 10.25,45.792 16.625,63.875c1.458,6.459 10.775,15.354 13.5,10.375c4.798,-8.767 11.484,-32.351 11.958,-36.583c-1.708,28.292 -2.417,56.625 -0.958,84.958c-0.292,25.167 4.416,49.917 9.791,74.375c13.917,70.209 40.875,137.125 74.709,200c38.458,68.167 83.708,132.209 131.333,194.209c46,65.5 87.875,135.041 114.125,211c30.792,87.5 32.875,185.708 -0.833,272.75c-26.667,73.958 -83.375,134.708 -151.084,173.375c-57.208,30.25 -121.125,49.625 -186,51.833c-11.375,-8 -23.958,-14.083 -34.75,-22.792c50.667,-2.916 101.959,-11.583 147.584,-34.833c117,-54.375 191.791,-182.375 189.208,-310.292c1.625,-33.875 -5.875,-67.083 -12.417,-99.875Z" style="fill:url(#_Linear1);"/><path d="M224.532,1393.48c38.125,-30.042 76,-60.459 115.166,-89.125c-0.916,40.5 0.042,80.958 1,121.416c3.5,79.792 18,158.75 37.792,235.959c13.958,56.75 36.75,110.916 61.625,163.625c22.375,52.25 56.417,98.25 87.292,145.625c17.125,28 38.666,52.916 60.041,77.708c23.875,29.917 53.084,54.875 79.875,82.042c30.834,27.666 62.625,54.458 97,77.666c-8.416,0.5 -16.875,1 -25.291,1.084c-47,-8.167 -93.667,-19.792 -138,-37.584c-70.042,-29.625 -133.084,-76.083 -181.542,-134.75c-46.75,-59.75 -83.417,-127 -111.542,-197.333c-59.75,-140.542 -83.541,-294.25 -83.416,-446.333Z" style="fill:#95dfff;fill-rule:nonzero;"/><path d="M2464.74,1329.23c37.375,30.875 75.167,61.375 112.25,92.666c0.583,-21.375 0.542,-42.791 2.542,-64.125c3.916,35.084 0.583,70.292 -0.834,105.417c-9.791,214.417 -80.291,426.542 -205,601.625c-56.458,76.958 -118.541,150.375 -191.208,212.625c-52.583,43.875 -106.5,86.875 -166.042,121.042c-62.083,35.708 -125.75,68.75 -191.625,96.833c28.584,-52.5 44,-110.833 53.375,-169.542c53.959,-27.458 106.5,-57.875 156,-92.708c28.834,-19.333 53.334,-44.083 80.584,-65.458c67.333,-62.209 128.833,-131.292 178.083,-208.834c25.292,-35.791 43.625,-75.75 64.958,-113.916c17.792,-38.917 36,-77.75 49.292,-118.5c28.583,-78.042 41.542,-160.5 53.167,-242.459c7.208,-51.25 2.958,-103.125 4.458,-154.666Z" style="fill:#95dfff;fill-rule:nonzero;"/><path d="M1038.03,1293.44c-0.875,-52.375 4.333,-106.458 27.458,-154.167c33.583,43.417 122.833,108.959 122.833,108.959c-5.166,43.75 -8.208,87.875 -5.125,131.958c-55,-14.542 -108.5,-42.25 -145.166,-86.75Zm8.791,89.042c40.292,29.458 148.545,63.092 148.545,63.092c-0,0 12.997,30.408 18.247,42.949c9.083,24.334 20.958,47.459 30.667,71.542c-56.834,-6.417 -112.834,-28.708 -154.792,-68.125c-23.458,-31.875 -33.375,-71.583 -42.667,-109.458Zm93.959,212.541c43.458,18.417 90.125,30.334 137.541,29.959c15.792,18.666 34.209,34.958 48.875,54.625c26.542,34.25 56.625,65.75 81.209,101.5c-75.875,-4.5 -145.375,-44.375 -197.917,-97.709c-27.458,-25.916 -48.083,-57.708 -69.708,-88.375Zm177.375,230.625c44.291,15.792 92.041,22.25 138.875,16.959c-0.459,12.958 9,22.75 15.125,33.25c32.25,49.916 56.291,104.625 75.458,160.75c-48.833,-6.875 -90.625,-33.959 -132.125,-58.5c-25.667,-54.792 -58.708,-105.917 -97.333,-152.459Zm131.208,242.25c42.333,25.042 91.875,34.834 140.708,32.959c-7.25,0.916 -14.458,2 -21.625,3.083c12.334,69.458 15,140.875 3.125,210.625c-30.291,-12.5 -59.875,-27.958 -85.208,-48.917c-2.75,-7.375 -1.417,-15.458 -1.833,-23.125c0.5,-59.916 -14.792,-118.708 -35.167,-174.625Zm30.042,270.25c25.25,14.084 51.625,26.334 79.041,35.75c-14.5,71.917 -53.875,136.25 -98.375,193.542c-12.875,15.542 -27.172,34.756 -43.297,47.048c-20.417,1.541 -48.828,2.702 -68.661,-2.84c40.667,-43.041 81.125,-98.625 102.625,-153.708c15.667,-38.083 26.542,-78.542 28.667,-119.792Z" style="fill:#8dd0e4;"/><path d="M1403.48,13.434c769.521,0 1394.27,624.754 1394.27,1394.28c0,769.521 -624.753,1394.27 -1394.27,1394.27c-769.521,-0 -1394.28,-624.753 -1394.28,-1394.27c0,-769.521 624.754,-1394.28 1394.28,-1394.28Zm-950.169,2060.41c42.559,41.488 93.006,74.906 147.726,98.05c44.333,17.792 91,29.417 138,37.584c42.916,6 87.625,6.625 129.291,-6.542c40.375,-12.125 75.459,-40.417 95.834,-77.292c25.416,-43.583 28.333,-96.5 21.708,-145.458c-13.25,-83.958 -61.167,-156.417 -110.417,-223.583c-35.583,-47.084 -68.375,-96.167 -100.916,-145.375c-71.625,-114.125 -118.625,-245.834 -123,-381.25c-3.959,-88.667 5.583,-178.584 33.958,-262.959c23.25,-68.083 57.833,-132.333 101.417,-189.583c52.208,-73.125 120.25,-134.125 195.583,-182.667c66.875,-42.25 141.958,-69.666 218.542,-88.333c56.166,-12.708 113.791,-19 171.375,-17.458c85.5,0.75 169.375,19.458 252.416,37.833c82.75,18.75 168.334,40.333 236.75,93.083c34.542,24.625 64.25,55.292 91.084,88c16.083,19.917 34.291,38.709 56.333,52.084c36.167,21.916 77.875,32.041 114.875,52.333c48.458,25.25 92.125,61.875 119.958,109.333c26.459,42.375 43.084,91.584 42.542,141.875c-0.125,77.75 -32.292,155.75 -90.542,208c13.209,21.584 26.209,43.417 36.875,66.417c31.459,68.292 39.459,144.208 43.5,218.417c-34.083,-44.875 -59.791,-95.25 -89.375,-143.042c-21.041,56.208 -52.625,108.875 -96.333,150.458c8.667,-37.458 18.292,-74.791 22.917,-113c3.708,-35.75 6.208,-71.625 5.666,-107.583c-59.791,57.167 -144.583,80.625 -225.791,79.042c-134.792,-3.875 -266.25,-37.167 -397.834,-63.459c-5.958,30.25 -5.125,61.834 4.042,91.417c15.958,61.583 59.667,109.875 98.917,157.958c37.75,42.917 76.916,84.709 111.708,130.084c40.875,55.125 80.458,112.083 107.458,175.458c28.959,60.542 45.709,125.958 59.709,191.333c12.166,72.875 11.625,147.709 0.916,220.75c-8.921,55.87 -23.315,111.401 -49.32,161.887c430.317,-169.835 735.116,-589.578 735.116,-1079.95c0,-640.508 -520.011,-1160.52 -1160.52,-1160.52c-640.508,0 -1160.52,520.012 -1160.52,1160.52c0,247.79 77.828,477.547 210.351,666.137Zm1215.75,463.8c44.955,-54.986 72.694,-122.861 89.731,-191.375c-14.125,9.834 -27.625,21 -43.959,27c-49.833,19.125 -106.125,17.084 -156.375,0.625c-27.416,-9.416 -53.791,-21.666 -79.041,-35.75c-2.125,41.25 -13,81.709 -28.667,119.792c-15.317,39.243 -35.711,76.478 -60.878,110.212c4.531,0.052 9.069,0.078 13.613,0.078c91.363,0 180.275,-10.581 265.576,-30.582Zm-356.866,27.037c39.859,-43.349 70.777,-95 88.472,-151.245c16.25,-54.042 27.208,-110.708 21.458,-167.333c-4.25,-75.042 -25.5,-148.167 -55.917,-216.625c-33.041,-81.042 -83.166,-153.75 -138.291,-221.209c-1.042,-3.083 -2.5,-5.958 -4.375,-8.583c-31.5,-39.208 -64.792,-76.917 -96.834,-115.667c-13.25,-15.458 -22.583,-33.958 -36.708,-48.583c-53.292,-79.333 -96.875,-167.75 -110.458,-263.25c-7.084,-34.458 -7,-69.792 -6.25,-104.792c3.041,-104.291 44.416,-208.75 121.083,-280.791c13.75,35.125 32.5,68.541 58.917,95.75c30.291,36.208 71.458,60.916 112.833,82.541c67.917,33.334 140.917,54.5 213.375,75.5c29.417,8.917 60.125,12.709 89.375,22.209c28.417,9.666 58.375,13.416 87.458,20.541c34.792,4.792 68.375,15.625 103.167,20.375c52.5,7.917 105.5,13.334 158.708,12.292c43.959,1.292 89.084,-9.667 125.542,-34.875c10.833,-7.625 22.375,-15.375 28.917,-27.292l4.541,-1.875c-5.708,-4.041 -11.375,-8.041 -17.083,-12.041c-16.875,9.083 -32.75,20 -50.333,27.666c-24.709,11.125 -51.667,16.167 -78.5,18.667c-80.167,4.292 -160.209,-8.125 -238.042,-26.458c-36.792,-7.542 -72.292,-19.959 -108.042,-31.292c-47.083,-15.042 -91.5,-36.958 -135.458,-59.333c-40.708,-22.667 -81.667,-48.292 -111.333,-84.75c32.541,-3.334 64.583,-10.209 95.5,-20.875c16.583,17.25 34.333,33.5 54.083,47.041c39.625,26.5 84.875,42.667 129.75,57.875c29.917,9.167 59.792,18.459 90.375,25.334c56.917,12.791 114.292,27.375 173.083,26.25c44.167,1.125 89.542,-6.125 128.709,-27.375c26.958,-12.959 52.291,-32.042 83.125,-34.084c21.166,-3.291 42.541,4.084 59.5,16.625c6.833,-10.625 12.833,-22.25 14.125,-35c6.458,-26.458 13.833,-53.541 10.208,-81.041c-2.75,-39.875 -19.875,-78.375 -46.25,-108.209c-34.667,-37.333 -83.625,-55.291 -129.292,-75c-34.166,-13.083 -66.041,-32.125 -93.583,-56.208c-26.125,-22.833 -45.75,-51.708 -69,-77.208c-45.292,-47.334 -108,-72.75 -170.5,-88.084c-54,-12.25 -108.167,-23.833 -162.375,-35.125c-44.042,-8.291 -88.333,-17.25 -133.333,-17.125c-59.292,-1.375 -117.875,10.584 -174.792,25.917c-87,23.917 -169.583,66.583 -235.667,128.542c-100.333,88.625 -166.833,213.583 -188.166,345.416l-0.084,-2c-7.333,50 -5.375,100.709 -3.125,151c7.125,60.959 21.084,121.375 43.292,178.667c16.958,39.208 34.667,78.25 56.083,115.292c52.25,85.666 116.459,163.5 167.625,249.875c25.5,43.833 43.792,91.333 59,139.541c6.542,32.792 14.042,66 12.417,99.875c2.583,127.917 -72.208,255.917 -189.208,310.292c-45.625,23.25 -96.917,31.917 -147.584,34.833c10.792,8.709 23.375,14.792 34.75,22.792c4.1,2.862 8.219,5.696 12.356,8.502c146.829,85.756 314.145,140.192 492.756,154.118Zm144.847,-722.078c-46.834,5.291 -94.584,-1.167 -138.875,-16.959c38.625,46.542 71.666,97.667 97.333,152.459c41.5,24.541 83.292,51.625 132.125,58.5c35.917,4.583 73.458,1.583 107.5,-11.125c27.292,-10.084 48.458,-31.875 61.042,-57.792c-21.167,-48.125 -46.042,-94.792 -77.167,-137.25c-13.208,-16.167 -25.542,-33 -37.542,-50.042c-36.833,39.459 -91.375,59.167 -144.416,62.209Zm-419,-549.167c36.666,44.5 90.166,72.208 145.166,86.75c15.292,4.958 31.542,6.208 47.5,7.583c45.834,3.334 95.667,-0.625 133.792,-28.833c8.125,-12.75 10.958,-27.958 15.125,-42.292c-65.667,-16.75 -130.375,-38.5 -191.292,-68.416c0,-0 -89.25,-65.542 -122.833,-108.959c-23.125,47.709 -28.333,101.792 -27.458,154.167Zm8.791,89.042c9.292,37.875 19.209,77.583 42.667,109.458c41.958,39.417 97.958,61.708 154.792,68.125c54.333,5.625 115.625,2.042 158.541,-35.917c-14.208,-32.708 -26.333,-67.25 -27.375,-103.25c-58.5,32.75 -128.875,32.459 -193.458,22.834c-48.042,-12.584 -94.875,-31.792 -135.167,-61.25Zm654.292,684.291c-32.708,21.959 -72.167,31.667 -111.042,34.084c-48.833,1.875 -98.375,-7.917 -140.708,-32.959c20.375,55.917 35.667,114.709 35.167,174.625c0.416,7.667 -0.917,15.75 1.833,23.125c25.333,20.959 54.917,36.417 85.208,48.917c40.792,11.875 85.25,15.083 126.167,2.167c25.875,-8.209 48.125,-25.875 63.125,-48.334c5.833,-9.791 6.292,-21.541 7.917,-32.541c2.583,-43.209 -0.459,-86.709 -8.917,-129.084c-6.542,-25.666 -13,-51.333 -19.917,-76.875c-12.75,12.459 -24.541,26.125 -38.833,36.875Zm-301.875,-467.875c-38,16.834 -79.458,25.209 -120.917,26.084c-47.416,0.375 -94.083,-11.542 -137.541,-29.959c21.625,30.667 42.25,62.459 69.708,88.375c52.542,53.334 122.042,93.209 197.917,97.709c54.166,5.833 115.541,-5.709 154.541,-46.417c-15.916,-14.417 -31.333,-29.5 -44.625,-46.375c-29.791,-36.417 -62.25,-71.083 -86.083,-111.917c-10.333,8.417 -20.542,17.334 -33,22.5Z" style="fill:#011d4a;"/><defs><linearGradient id="_Linear1" x1="0" y1="0" x2="1" y2="0" gradientUnits="userSpaceOnUse" gradientTransform="matrix(16.5417,1236.29,-1236.29,16.5417,790.532,1165.77)"><stop offset="0" style="stop-color:#fff;stop-opacity:1"/><stop offset="0.56" style="stop-color:#55cafd;stop-opacity:1"/><stop offset="1" style="stop-color:#0cb3fc;stop-opacity:1"/></linearGradient></defs></svg>